<mxfile host="app.diagrams.net" agent="Mozilla/5.0 (Windows NT 10.0; Win64; x64) AppleWebKit/537.36 (KHTML, like Gecko) Chrome/131.0.0.0 Safari/537.36 Edg/131.0.0.0" version="25.0.3">
  <diagram name="Page-1" id="wjQeGYI749mV24C6U2fJ">
    <mxGraphModel dx="2100" dy="1082" grid="1" gridSize="10" guides="1" tooltips="1" connect="1" arrows="1" fold="1" page="1" pageScale="1" pageWidth="850" pageHeight="1100" math="0" shadow="0">
      <root>
        <mxCell id="0" />
        <mxCell id="1" parent="0" />
        <mxCell id="tb72shasFinZ9iTaUBC0-1" value="Movie/Game&amp;nbsp;&lt;span style=&quot;background-color: initial;&quot;&gt;DVD&amp;nbsp;&lt;/span&gt;&lt;div&gt;Rental System&lt;/div&gt;" style="rounded=1;whiteSpace=wrap;html=1;fontStyle=1;fontSize=15;" parent="1" vertex="1">
          <mxGeometry x="310" y="60" width="200" height="420" as="geometry" />
        </mxCell>
        <mxCell id="tb72shasFinZ9iTaUBC0-2" value="DVD Ordering Service" style="rounded=1;whiteSpace=wrap;html=1;fontStyle=0;fontSize=15;" parent="1" vertex="1">
          <mxGeometry x="627" y="60" width="140" height="200" as="geometry" />
        </mxCell>
        <mxCell id="tb72shasFinZ9iTaUBC0-3" style="rounded=0;orthogonalLoop=1;jettySize=auto;html=1;exitX=0.998;exitY=0.07;exitDx=0;exitDy=0;exitPerimeter=0;entryX=0;entryY=0.25;entryDx=0;entryDy=0;" parent="1" edge="1">
          <mxGeometry relative="1" as="geometry">
            <mxPoint x="509.6" y="85.39999999999998" as="sourcePoint" />
            <mxPoint x="627" y="86" as="targetPoint" />
          </mxGeometry>
        </mxCell>
        <mxCell id="tb72shasFinZ9iTaUBC0-4" value="Get Current Price" style="edgeLabel;html=1;align=center;verticalAlign=middle;resizable=0;points=[];fontSize=7;" parent="tb72shasFinZ9iTaUBC0-3" vertex="1" connectable="0">
          <mxGeometry x="-0.2845" relative="1" as="geometry">
            <mxPoint x="15" y="-6" as="offset" />
          </mxGeometry>
        </mxCell>
        <mxCell id="tb72shasFinZ9iTaUBC0-5" style="rounded=0;orthogonalLoop=1;jettySize=auto;html=1;exitX=0.003;exitY=0.366;exitDx=0;exitDy=0;exitPerimeter=0;entryX=1;entryY=0.099;entryDx=0;entryDy=0;entryPerimeter=0;" parent="1" edge="1">
          <mxGeometry relative="1" as="geometry">
            <mxPoint x="627.4200000000001" y="99.91999999999996" as="sourcePoint" />
            <mxPoint x="510" y="99.58000000000004" as="targetPoint" />
          </mxGeometry>
        </mxCell>
        <mxCell id="tb72shasFinZ9iTaUBC0-6" value="Current Price Response" style="edgeLabel;html=1;align=center;verticalAlign=middle;resizable=0;points=[];fontSize=7;" parent="tb72shasFinZ9iTaUBC0-5" vertex="1" connectable="0">
          <mxGeometry x="-0.2845" relative="1" as="geometry">
            <mxPoint x="-11" y="-6" as="offset" />
          </mxGeometry>
        </mxCell>
        <mxCell id="tb72shasFinZ9iTaUBC0-7" style="rounded=0;orthogonalLoop=1;jettySize=auto;html=1;exitX=1.001;exitY=0.16;exitDx=0;exitDy=0;exitPerimeter=0;entryX=-0.002;entryY=0.563;entryDx=0;entryDy=0;entryPerimeter=0;" parent="1" edge="1">
          <mxGeometry relative="1" as="geometry">
            <mxPoint x="510.20000000000005" y="121.19999999999999" as="sourcePoint" />
            <mxPoint x="626.72" y="121.56" as="targetPoint" />
          </mxGeometry>
        </mxCell>
        <mxCell id="tb72shasFinZ9iTaUBC0-8" value="Get DVD Catalogue" style="edgeLabel;html=1;align=center;verticalAlign=middle;resizable=0;points=[];fontSize=7;" parent="tb72shasFinZ9iTaUBC0-7" vertex="1" connectable="0">
          <mxGeometry x="-0.2845" relative="1" as="geometry">
            <mxPoint x="15" y="-6" as="offset" />
          </mxGeometry>
        </mxCell>
        <mxCell id="tb72shasFinZ9iTaUBC0-9" style="rounded=0;orthogonalLoop=1;jettySize=auto;html=1;exitX=-0.005;exitY=0.672;exitDx=0;exitDy=0;exitPerimeter=0;entryX=0.999;entryY=0.192;entryDx=0;entryDy=0;entryPerimeter=0;" parent="1" edge="1">
          <mxGeometry relative="1" as="geometry">
            <mxPoint x="626.3" y="134.64" as="sourcePoint" />
            <mxPoint x="509.79999999999995" y="134.64" as="targetPoint" />
          </mxGeometry>
        </mxCell>
        <mxCell id="tb72shasFinZ9iTaUBC0-10" value="DVD Catalogue Response" style="edgeLabel;html=1;align=center;verticalAlign=middle;resizable=0;points=[];fontSize=7;" parent="tb72shasFinZ9iTaUBC0-9" vertex="1" connectable="0">
          <mxGeometry x="-0.2845" relative="1" as="geometry">
            <mxPoint x="-11" y="-6" as="offset" />
          </mxGeometry>
        </mxCell>
        <mxCell id="tb72shasFinZ9iTaUBC0-13" style="rounded=0;orthogonalLoop=1;jettySize=auto;html=1;exitX=1;exitY=0.228;exitDx=0;exitDy=0;exitPerimeter=0;entryX=0.002;entryY=0.793;entryDx=0;entryDy=0;entryPerimeter=0;" parent="1" edge="1">
          <mxGeometry relative="1" as="geometry">
            <mxPoint x="510" y="151.76" as="sourcePoint" />
            <mxPoint x="627.28" y="151.15999999999997" as="targetPoint" />
          </mxGeometry>
        </mxCell>
        <mxCell id="tb72shasFinZ9iTaUBC0-14" value="Order DVD" style="edgeLabel;html=1;align=center;verticalAlign=middle;resizable=0;points=[];fontSize=7;" parent="tb72shasFinZ9iTaUBC0-13" vertex="1" connectable="0">
          <mxGeometry x="-0.2845" relative="1" as="geometry">
            <mxPoint x="15" y="-6" as="offset" />
          </mxGeometry>
        </mxCell>
        <mxCell id="tb72shasFinZ9iTaUBC0-15" style="rounded=0;orthogonalLoop=1;jettySize=auto;html=1;exitX=-0.002;exitY=0.522;exitDx=0;exitDy=0;exitPerimeter=0;entryX=1;entryY=0.258;entryDx=0;entryDy=0;entryPerimeter=0;" parent="1" source="tb72shasFinZ9iTaUBC0-2" edge="1">
          <mxGeometry relative="1" as="geometry">
            <mxPoint x="628.1200000000001" y="164.36" as="sourcePoint" />
            <mxPoint x="510" y="164.36" as="targetPoint" />
          </mxGeometry>
        </mxCell>
        <mxCell id="tb72shasFinZ9iTaUBC0-16" value="Order Result Response" style="edgeLabel;html=1;align=center;verticalAlign=middle;resizable=0;points=[];fontSize=7;" parent="tb72shasFinZ9iTaUBC0-15" vertex="1" connectable="0">
          <mxGeometry x="-0.2845" relative="1" as="geometry">
            <mxPoint x="-11" y="-6" as="offset" />
          </mxGeometry>
        </mxCell>
        <mxCell id="tb72shasFinZ9iTaUBC0-17" value="Store Clerk" style="rounded=1;whiteSpace=wrap;html=1;fontStyle=0;fontSize=15;" parent="1" vertex="1">
          <mxGeometry x="50" y="60" width="140" height="200" as="geometry" />
        </mxCell>
        <mxCell id="tb72shasFinZ9iTaUBC0-18" value="Customer" style="rounded=1;whiteSpace=wrap;html=1;fontStyle=0;fontSize=15;" parent="1" vertex="1">
          <mxGeometry x="50" y="280" width="140" height="200" as="geometry" />
        </mxCell>
        <mxCell id="tb72shasFinZ9iTaUBC0-19" value="Store Manager" style="rounded=1;whiteSpace=wrap;html=1;fontStyle=0;fontSize=15;" parent="1" vertex="1">
          <mxGeometry x="627" y="280" width="140" height="200" as="geometry" />
        </mxCell>
        <mxCell id="tb72shasFinZ9iTaUBC0-20" style="rounded=0;orthogonalLoop=1;jettySize=auto;html=1;exitX=-0.001;exitY=0.198;exitDx=0;exitDy=0;exitPerimeter=0;entryX=1;entryY=0.617;entryDx=0;entryDy=0;entryPerimeter=0;" parent="1" source="tb72shasFinZ9iTaUBC0-19" target="tb72shasFinZ9iTaUBC0-1" edge="1">
          <mxGeometry relative="1" as="geometry">
            <mxPoint x="628.1200000000001" y="320" as="sourcePoint" />
            <mxPoint x="510" y="320" as="targetPoint" />
          </mxGeometry>
        </mxCell>
        <mxCell id="tb72shasFinZ9iTaUBC0-21" value="Fill DVD Order Form" style="edgeLabel;html=1;align=center;verticalAlign=middle;resizable=0;points=[];fontSize=7;" parent="tb72shasFinZ9iTaUBC0-20" vertex="1" connectable="0">
          <mxGeometry x="-0.2845" relative="1" as="geometry">
            <mxPoint x="-11" y="-6" as="offset" />
          </mxGeometry>
        </mxCell>
        <mxCell id="tb72shasFinZ9iTaUBC0-22" style="rounded=0;orthogonalLoop=1;jettySize=auto;html=1;exitX=1;exitY=0.228;exitDx=0;exitDy=0;exitPerimeter=0;entryX=0.001;entryY=0.257;entryDx=0;entryDy=0;entryPerimeter=0;" parent="1" target="tb72shasFinZ9iTaUBC0-19" edge="1">
          <mxGeometry relative="1" as="geometry">
            <mxPoint x="510" y="330.6" as="sourcePoint" />
            <mxPoint x="627.28" y="330" as="targetPoint" />
          </mxGeometry>
        </mxCell>
        <mxCell id="tb72shasFinZ9iTaUBC0-23" value="Order Form Response" style="edgeLabel;html=1;align=center;verticalAlign=middle;resizable=0;points=[];fontSize=7;" parent="tb72shasFinZ9iTaUBC0-22" vertex="1" connectable="0">
          <mxGeometry x="-0.2845" relative="1" as="geometry">
            <mxPoint x="15" y="-6" as="offset" />
          </mxGeometry>
        </mxCell>
        <mxCell id="tb72shasFinZ9iTaUBC0-24" style="rounded=0;orthogonalLoop=1;jettySize=auto;html=1;exitX=-0.001;exitY=0.198;exitDx=0;exitDy=0;exitPerimeter=0;entryX=1;entryY=0.617;entryDx=0;entryDy=0;entryPerimeter=0;" parent="1" edge="1">
          <mxGeometry relative="1" as="geometry">
            <mxPoint x="627" y="351" as="sourcePoint" />
            <mxPoint x="510" y="350" as="targetPoint" />
          </mxGeometry>
        </mxCell>
        <mxCell id="tb72shasFinZ9iTaUBC0-25" value="Get Supplier List" style="edgeLabel;html=1;align=center;verticalAlign=middle;resizable=0;points=[];fontSize=7;" parent="tb72shasFinZ9iTaUBC0-24" vertex="1" connectable="0">
          <mxGeometry x="-0.2845" relative="1" as="geometry">
            <mxPoint x="-11" y="-6" as="offset" />
          </mxGeometry>
        </mxCell>
        <mxCell id="tb72shasFinZ9iTaUBC0-26" style="rounded=0;orthogonalLoop=1;jettySize=auto;html=1;exitX=1;exitY=0.228;exitDx=0;exitDy=0;exitPerimeter=0;entryX=0.001;entryY=0.257;entryDx=0;entryDy=0;entryPerimeter=0;" parent="1" edge="1">
          <mxGeometry relative="1" as="geometry">
            <mxPoint x="510" y="361.6" as="sourcePoint" />
            <mxPoint x="627" y="362" as="targetPoint" />
          </mxGeometry>
        </mxCell>
        <mxCell id="tb72shasFinZ9iTaUBC0-27" value="Supplier List Response" style="edgeLabel;html=1;align=center;verticalAlign=middle;resizable=0;points=[];fontSize=7;" parent="tb72shasFinZ9iTaUBC0-26" vertex="1" connectable="0">
          <mxGeometry x="-0.2845" relative="1" as="geometry">
            <mxPoint x="15" y="-6" as="offset" />
          </mxGeometry>
        </mxCell>
        <mxCell id="tb72shasFinZ9iTaUBC0-28" style="rounded=0;orthogonalLoop=1;jettySize=auto;html=1;exitX=-0.001;exitY=0.198;exitDx=0;exitDy=0;exitPerimeter=0;entryX=1;entryY=0.617;entryDx=0;entryDy=0;entryPerimeter=0;" parent="1" edge="1">
          <mxGeometry relative="1" as="geometry">
            <mxPoint x="627" y="381" as="sourcePoint" />
            <mxPoint x="510" y="380" as="targetPoint" />
          </mxGeometry>
        </mxCell>
        <mxCell id="tb72shasFinZ9iTaUBC0-29" value="Submit Order Form" style="edgeLabel;html=1;align=center;verticalAlign=middle;resizable=0;points=[];fontSize=7;" parent="tb72shasFinZ9iTaUBC0-28" vertex="1" connectable="0">
          <mxGeometry x="-0.2845" relative="1" as="geometry">
            <mxPoint x="-11" y="-6" as="offset" />
          </mxGeometry>
        </mxCell>
        <mxCell id="tb72shasFinZ9iTaUBC0-30" style="rounded=0;orthogonalLoop=1;jettySize=auto;html=1;exitX=1;exitY=0.228;exitDx=0;exitDy=0;exitPerimeter=0;entryX=0.001;entryY=0.257;entryDx=0;entryDy=0;entryPerimeter=0;" parent="1" edge="1">
          <mxGeometry relative="1" as="geometry">
            <mxPoint x="510" y="391.6" as="sourcePoint" />
            <mxPoint x="627" y="392" as="targetPoint" />
          </mxGeometry>
        </mxCell>
        <mxCell id="tb72shasFinZ9iTaUBC0-31" value="Order Form Response" style="edgeLabel;html=1;align=center;verticalAlign=middle;resizable=0;points=[];fontSize=7;" parent="tb72shasFinZ9iTaUBC0-30" vertex="1" connectable="0">
          <mxGeometry x="-0.2845" relative="1" as="geometry">
            <mxPoint x="15" y="-6" as="offset" />
          </mxGeometry>
        </mxCell>
        <mxCell id="tb72shasFinZ9iTaUBC0-32" style="rounded=0;orthogonalLoop=1;jettySize=auto;html=1;entryX=-0.001;entryY=0.6;entryDx=0;entryDy=0;entryPerimeter=0;exitX=1;exitY=0.286;exitDx=0;exitDy=0;exitPerimeter=0;" parent="1" edge="1">
          <mxGeometry relative="1" as="geometry">
            <mxPoint x="510" y="200.12" as="sourcePoint" />
            <mxPoint x="626.8600000000001" y="200" as="targetPoint" />
          </mxGeometry>
        </mxCell>
        <mxCell id="tb72shasFinZ9iTaUBC0-33" value="Status Change Response" style="edgeLabel;html=1;align=center;verticalAlign=middle;resizable=0;points=[];fontSize=7;" parent="tb72shasFinZ9iTaUBC0-32" vertex="1" connectable="0">
          <mxGeometry x="-0.2845" relative="1" as="geometry">
            <mxPoint x="15" y="-6" as="offset" />
          </mxGeometry>
        </mxCell>
        <mxCell id="tb72shasFinZ9iTaUBC0-34" style="rounded=0;orthogonalLoop=1;jettySize=auto;html=1;exitX=-0.002;exitY=0.666;exitDx=0;exitDy=0;exitPerimeter=0;entryX=1.003;entryY=0.317;entryDx=0;entryDy=0;entryPerimeter=0;" parent="1" edge="1">
          <mxGeometry relative="1" as="geometry">
            <mxPoint x="626.72" y="186.2" as="sourcePoint" />
            <mxPoint x="510.5999999999999" y="186.14" as="targetPoint" />
          </mxGeometry>
        </mxCell>
        <mxCell id="tb72shasFinZ9iTaUBC0-35" value="Send Success Notification" style="edgeLabel;html=1;align=center;verticalAlign=middle;resizable=0;points=[];fontSize=7;" parent="tb72shasFinZ9iTaUBC0-34" vertex="1" connectable="0">
          <mxGeometry x="-0.2845" relative="1" as="geometry">
            <mxPoint x="-11" y="-6" as="offset" />
          </mxGeometry>
        </mxCell>
        <mxCell id="tb72shasFinZ9iTaUBC0-36" style="rounded=0;orthogonalLoop=1;jettySize=auto;html=1;exitX=-0.002;exitY=0.666;exitDx=0;exitDy=0;exitPerimeter=0;entryX=1.003;entryY=0.317;entryDx=0;entryDy=0;entryPerimeter=0;" parent="1" edge="1">
          <mxGeometry relative="1" as="geometry">
            <mxPoint x="626.72" y="220.06" as="sourcePoint" />
            <mxPoint x="510.5999999999999" y="220" as="targetPoint" />
          </mxGeometry>
        </mxCell>
        <mxCell id="tb72shasFinZ9iTaUBC0-37" value="Send Failure Notification" style="edgeLabel;html=1;align=center;verticalAlign=middle;resizable=0;points=[];fontSize=7;" parent="tb72shasFinZ9iTaUBC0-36" vertex="1" connectable="0">
          <mxGeometry x="-0.2845" relative="1" as="geometry">
            <mxPoint x="-11" y="-6" as="offset" />
          </mxGeometry>
        </mxCell>
        <mxCell id="tb72shasFinZ9iTaUBC0-38" style="rounded=0;orthogonalLoop=1;jettySize=auto;html=1;entryX=-0.001;entryY=0.6;entryDx=0;entryDy=0;entryPerimeter=0;exitX=1;exitY=0.286;exitDx=0;exitDy=0;exitPerimeter=0;" parent="1" edge="1">
          <mxGeometry relative="1" as="geometry">
            <mxPoint x="510" y="233.98000000000002" as="sourcePoint" />
            <mxPoint x="626.8600000000001" y="233.86" as="targetPoint" />
          </mxGeometry>
        </mxCell>
        <mxCell id="tb72shasFinZ9iTaUBC0-39" value="Status Change Response" style="edgeLabel;html=1;align=center;verticalAlign=middle;resizable=0;points=[];fontSize=7;" parent="tb72shasFinZ9iTaUBC0-38" vertex="1" connectable="0">
          <mxGeometry x="-0.2845" relative="1" as="geometry">
            <mxPoint x="15" y="-6" as="offset" />
          </mxGeometry>
        </mxCell>
        <mxCell id="tb72shasFinZ9iTaUBC0-40" style="rounded=0;orthogonalLoop=1;jettySize=auto;html=1;exitX=-0.001;exitY=0.653;exitDx=0;exitDy=0;exitPerimeter=0;entryX=1;entryY=0.617;entryDx=0;entryDy=0;entryPerimeter=0;" parent="1" source="tb72shasFinZ9iTaUBC0-19" edge="1">
          <mxGeometry relative="1" as="geometry">
            <mxPoint x="627" y="411" as="sourcePoint" />
            <mxPoint x="510" y="410" as="targetPoint" />
          </mxGeometry>
        </mxCell>
        <mxCell id="tb72shasFinZ9iTaUBC0-41" value="Get Order Result" style="edgeLabel;html=1;align=center;verticalAlign=middle;resizable=0;points=[];fontSize=7;" parent="tb72shasFinZ9iTaUBC0-40" vertex="1" connectable="0">
          <mxGeometry x="-0.2845" relative="1" as="geometry">
            <mxPoint x="-16" y="-5" as="offset" />
          </mxGeometry>
        </mxCell>
        <mxCell id="tb72shasFinZ9iTaUBC0-42" style="rounded=0;orthogonalLoop=1;jettySize=auto;html=1;exitX=1;exitY=0.228;exitDx=0;exitDy=0;exitPerimeter=0;entryX=0.001;entryY=0.257;entryDx=0;entryDy=0;entryPerimeter=0;" parent="1" edge="1">
          <mxGeometry relative="1" as="geometry">
            <mxPoint x="510" y="421.6" as="sourcePoint" />
            <mxPoint x="627" y="422" as="targetPoint" />
          </mxGeometry>
        </mxCell>
        <mxCell id="tb72shasFinZ9iTaUBC0-43" value="Order Result Response" style="edgeLabel;html=1;align=center;verticalAlign=middle;resizable=0;points=[];fontSize=7;" parent="tb72shasFinZ9iTaUBC0-42" vertex="1" connectable="0">
          <mxGeometry x="-0.2845" relative="1" as="geometry">
            <mxPoint x="15" y="-6" as="offset" />
          </mxGeometry>
        </mxCell>
        <mxCell id="tb72shasFinZ9iTaUBC0-45" style="rounded=0;orthogonalLoop=1;jettySize=auto;html=1;exitX=0.998;exitY=0.07;exitDx=0;exitDy=0;exitPerimeter=0;entryX=-0.001;entryY=0.097;entryDx=0;entryDy=0;entryPerimeter=0;" parent="1" edge="1">
          <mxGeometry relative="1" as="geometry">
            <mxPoint x="190" y="85.99999999999997" as="sourcePoint" />
            <mxPoint x="309.80000000000007" y="86.74000000000001" as="targetPoint" />
          </mxGeometry>
        </mxCell>
        <mxCell id="tb72shasFinZ9iTaUBC0-46" value="Record DVD Information" style="edgeLabel;html=1;align=center;verticalAlign=middle;resizable=0;points=[];fontSize=7;" parent="tb72shasFinZ9iTaUBC0-45" vertex="1" connectable="0">
          <mxGeometry x="-0.2845" relative="1" as="geometry">
            <mxPoint x="15" y="-6" as="offset" />
          </mxGeometry>
        </mxCell>
        <mxCell id="tb72shasFinZ9iTaUBC0-47" style="rounded=0;orthogonalLoop=1;jettySize=auto;html=1;exitX=-0.001;exitY=0.13;exitDx=0;exitDy=0;exitPerimeter=0;entryX=1;entryY=0.099;entryDx=0;entryDy=0;entryPerimeter=0;" parent="1" edge="1">
          <mxGeometry relative="1" as="geometry">
            <mxPoint x="309.80000000000007" y="100.59999999999997" as="sourcePoint" />
            <mxPoint x="190.39999999999998" y="100.18000000000004" as="targetPoint" />
          </mxGeometry>
        </mxCell>
        <mxCell id="tb72shasFinZ9iTaUBC0-48" value="DVD Information Response" style="edgeLabel;html=1;align=center;verticalAlign=middle;resizable=0;points=[];fontSize=7;" parent="tb72shasFinZ9iTaUBC0-47" vertex="1" connectable="0">
          <mxGeometry x="-0.2845" relative="1" as="geometry">
            <mxPoint x="-11" y="-6" as="offset" />
          </mxGeometry>
        </mxCell>
        <mxCell id="tb72shasFinZ9iTaUBC0-49" style="rounded=0;orthogonalLoop=1;jettySize=auto;html=1;exitX=0.998;exitY=0.07;exitDx=0;exitDy=0;exitPerimeter=0;entryX=-0.001;entryY=0.097;entryDx=0;entryDy=0;entryPerimeter=0;" parent="1" edge="1">
          <mxGeometry relative="1" as="geometry">
            <mxPoint x="190" y="119.99999999999997" as="sourcePoint" />
            <mxPoint x="310" y="121" as="targetPoint" />
          </mxGeometry>
        </mxCell>
        <mxCell id="tb72shasFinZ9iTaUBC0-50" value="Process Payment" style="edgeLabel;html=1;align=center;verticalAlign=middle;resizable=0;points=[];fontSize=7;" parent="tb72shasFinZ9iTaUBC0-49" vertex="1" connectable="0">
          <mxGeometry x="-0.2845" relative="1" as="geometry">
            <mxPoint x="15" y="-6" as="offset" />
          </mxGeometry>
        </mxCell>
        <mxCell id="tb72shasFinZ9iTaUBC0-51" style="rounded=0;orthogonalLoop=1;jettySize=auto;html=1;exitX=-0.001;exitY=0.13;exitDx=0;exitDy=0;exitPerimeter=0;entryX=1;entryY=0.099;entryDx=0;entryDy=0;entryPerimeter=0;" parent="1" edge="1">
          <mxGeometry relative="1" as="geometry">
            <mxPoint x="310" y="135.82" as="sourcePoint" />
            <mxPoint x="190.39999999999998" y="135.00000000000003" as="targetPoint" />
          </mxGeometry>
        </mxCell>
        <mxCell id="tb72shasFinZ9iTaUBC0-52" value="Payment Confirmation" style="edgeLabel;html=1;align=center;verticalAlign=middle;resizable=0;points=[];fontSize=7;" parent="tb72shasFinZ9iTaUBC0-51" vertex="1" connectable="0">
          <mxGeometry x="-0.2845" relative="1" as="geometry">
            <mxPoint x="-11" y="-6" as="offset" />
          </mxGeometry>
        </mxCell>
        <mxCell id="tb72shasFinZ9iTaUBC0-53" style="rounded=0;orthogonalLoop=1;jettySize=auto;html=1;exitX=-0.001;exitY=0.13;exitDx=0;exitDy=0;exitPerimeter=0;entryX=1;entryY=0.099;entryDx=0;entryDy=0;entryPerimeter=0;" parent="1" edge="1">
          <mxGeometry relative="1" as="geometry">
            <mxPoint x="309.6" y="434.5" as="sourcePoint" />
            <mxPoint x="189.99999999999997" y="433.68" as="targetPoint" />
          </mxGeometry>
        </mxCell>
        <mxCell id="tb72shasFinZ9iTaUBC0-54" value="Payment Confirmation" style="edgeLabel;html=1;align=center;verticalAlign=middle;resizable=0;points=[];fontSize=7;" parent="tb72shasFinZ9iTaUBC0-53" vertex="1" connectable="0">
          <mxGeometry x="-0.2845" relative="1" as="geometry">
            <mxPoint x="-11" y="-6" as="offset" />
          </mxGeometry>
        </mxCell>
        <mxCell id="tb72shasFinZ9iTaUBC0-55" style="rounded=0;orthogonalLoop=1;jettySize=auto;html=1;exitX=0.998;exitY=0.07;exitDx=0;exitDy=0;exitPerimeter=0;entryX=-0.001;entryY=0.097;entryDx=0;entryDy=0;entryPerimeter=0;" parent="1" edge="1">
          <mxGeometry relative="1" as="geometry">
            <mxPoint x="190" y="418.99999999999994" as="sourcePoint" />
            <mxPoint x="310" y="420" as="targetPoint" />
          </mxGeometry>
        </mxCell>
        <mxCell id="tb72shasFinZ9iTaUBC0-56" value="Make Payment" style="edgeLabel;html=1;align=center;verticalAlign=middle;resizable=0;points=[];fontSize=7;" parent="tb72shasFinZ9iTaUBC0-55" vertex="1" connectable="0">
          <mxGeometry x="-0.2845" relative="1" as="geometry">
            <mxPoint x="20" y="-6" as="offset" />
          </mxGeometry>
        </mxCell>
        <mxCell id="tb72shasFinZ9iTaUBC0-57" style="rounded=0;orthogonalLoop=1;jettySize=auto;html=1;exitX=-0.001;exitY=0.13;exitDx=0;exitDy=0;exitPerimeter=0;entryX=1;entryY=0.099;entryDx=0;entryDy=0;entryPerimeter=0;" parent="1" edge="1">
          <mxGeometry relative="1" as="geometry">
            <mxPoint x="310" y="171" as="sourcePoint" />
            <mxPoint x="190.39999999999998" y="170.18000000000004" as="targetPoint" />
          </mxGeometry>
        </mxCell>
        <mxCell id="tb72shasFinZ9iTaUBC0-58" value="Card Scan Response" style="edgeLabel;html=1;align=center;verticalAlign=middle;resizable=0;points=[];fontSize=7;" parent="tb72shasFinZ9iTaUBC0-57" vertex="1" connectable="0">
          <mxGeometry x="-0.2845" relative="1" as="geometry">
            <mxPoint x="-14" y="-6" as="offset" />
          </mxGeometry>
        </mxCell>
        <mxCell id="tb72shasFinZ9iTaUBC0-59" style="rounded=0;orthogonalLoop=1;jettySize=auto;html=1;exitX=0.998;exitY=0.07;exitDx=0;exitDy=0;exitPerimeter=0;entryX=-0.001;entryY=0.097;entryDx=0;entryDy=0;entryPerimeter=0;" parent="1" edge="1">
          <mxGeometry relative="1" as="geometry">
            <mxPoint x="190" y="155.99999999999997" as="sourcePoint" />
            <mxPoint x="310" y="157" as="targetPoint" />
          </mxGeometry>
        </mxCell>
        <mxCell id="tb72shasFinZ9iTaUBC0-60" value="Scan Customer Card" style="edgeLabel;html=1;align=center;verticalAlign=middle;resizable=0;points=[];fontSize=7;" parent="tb72shasFinZ9iTaUBC0-59" vertex="1" connectable="0">
          <mxGeometry x="-0.2845" relative="1" as="geometry">
            <mxPoint x="15" y="-6" as="offset" />
          </mxGeometry>
        </mxCell>
        <mxCell id="tb72shasFinZ9iTaUBC0-61" style="rounded=0;orthogonalLoop=1;jettySize=auto;html=1;exitX=-0.001;exitY=0.13;exitDx=0;exitDy=0;exitPerimeter=0;entryX=1;entryY=0.099;entryDx=0;entryDy=0;entryPerimeter=0;" parent="1" edge="1">
          <mxGeometry relative="1" as="geometry">
            <mxPoint x="310" y="203" as="sourcePoint" />
            <mxPoint x="190.39999999999998" y="202.18000000000004" as="targetPoint" />
          </mxGeometry>
        </mxCell>
        <mxCell id="tb72shasFinZ9iTaUBC0-62" value="Add Rental Line Response" style="edgeLabel;html=1;align=center;verticalAlign=middle;resizable=0;points=[];fontSize=7;" parent="tb72shasFinZ9iTaUBC0-61" vertex="1" connectable="0">
          <mxGeometry x="-0.2845" relative="1" as="geometry">
            <mxPoint x="-14" y="-6" as="offset" />
          </mxGeometry>
        </mxCell>
        <mxCell id="tb72shasFinZ9iTaUBC0-63" style="rounded=0;orthogonalLoop=1;jettySize=auto;html=1;exitX=0.998;exitY=0.07;exitDx=0;exitDy=0;exitPerimeter=0;entryX=-0.001;entryY=0.097;entryDx=0;entryDy=0;entryPerimeter=0;" parent="1" edge="1">
          <mxGeometry relative="1" as="geometry">
            <mxPoint x="190" y="187.99999999999997" as="sourcePoint" />
            <mxPoint x="310" y="189" as="targetPoint" />
          </mxGeometry>
        </mxCell>
        <mxCell id="tb72shasFinZ9iTaUBC0-64" value="Scan DVD" style="edgeLabel;html=1;align=center;verticalAlign=middle;resizable=0;points=[];fontSize=7;" parent="tb72shasFinZ9iTaUBC0-63" vertex="1" connectable="0">
          <mxGeometry x="-0.2845" relative="1" as="geometry">
            <mxPoint x="15" y="-6" as="offset" />
          </mxGeometry>
        </mxCell>
        <mxCell id="tb72shasFinZ9iTaUBC0-65" style="rounded=0;orthogonalLoop=1;jettySize=auto;html=1;exitX=0.998;exitY=0.07;exitDx=0;exitDy=0;exitPerimeter=0;entryX=-0.001;entryY=0.097;entryDx=0;entryDy=0;entryPerimeter=0;" parent="1" edge="1">
          <mxGeometry relative="1" as="geometry">
            <mxPoint x="190" y="219.99999999999997" as="sourcePoint" />
            <mxPoint x="310" y="221" as="targetPoint" />
          </mxGeometry>
        </mxCell>
        <mxCell id="tb72shasFinZ9iTaUBC0-66" value="Store Bank Card" style="edgeLabel;html=1;align=center;verticalAlign=middle;resizable=0;points=[];fontSize=7;" parent="tb72shasFinZ9iTaUBC0-65" vertex="1" connectable="0">
          <mxGeometry x="-0.2845" relative="1" as="geometry">
            <mxPoint x="15" y="-6" as="offset" />
          </mxGeometry>
        </mxCell>
        <mxCell id="tb72shasFinZ9iTaUBC0-67" style="rounded=0;orthogonalLoop=1;jettySize=auto;html=1;exitX=-0.001;exitY=0.13;exitDx=0;exitDy=0;exitPerimeter=0;entryX=1;entryY=0.099;entryDx=0;entryDy=0;entryPerimeter=0;" parent="1" edge="1">
          <mxGeometry relative="1" as="geometry">
            <mxPoint x="310" y="235" as="sourcePoint" />
            <mxPoint x="190.39999999999998" y="234.18000000000004" as="targetPoint" />
          </mxGeometry>
        </mxCell>
        <mxCell id="tb72shasFinZ9iTaUBC0-68" value="Bank Card Response" style="edgeLabel;html=1;align=center;verticalAlign=middle;resizable=0;points=[];fontSize=7;" parent="tb72shasFinZ9iTaUBC0-67" vertex="1" connectable="0">
          <mxGeometry x="-0.2845" relative="1" as="geometry">
            <mxPoint x="-14" y="-6" as="offset" />
          </mxGeometry>
        </mxCell>
        <mxCell id="tb72shasFinZ9iTaUBC0-69" style="rounded=0;orthogonalLoop=1;jettySize=auto;html=1;exitX=0.998;exitY=0.07;exitDx=0;exitDy=0;exitPerimeter=0;entryX=-0.001;entryY=0.097;entryDx=0;entryDy=0;entryPerimeter=0;" parent="1" edge="1">
          <mxGeometry relative="1" as="geometry">
            <mxPoint x="190" y="318.99999999999994" as="sourcePoint" />
            <mxPoint x="310" y="320" as="targetPoint" />
          </mxGeometry>
        </mxCell>
        <mxCell id="tb72shasFinZ9iTaUBC0-70" value="Rent DVDs" style="edgeLabel;html=1;align=center;verticalAlign=middle;resizable=0;points=[];fontSize=7;" parent="tb72shasFinZ9iTaUBC0-69" vertex="1" connectable="0">
          <mxGeometry x="-0.2845" relative="1" as="geometry">
            <mxPoint x="15" y="-6" as="offset" />
          </mxGeometry>
        </mxCell>
        <mxCell id="tb72shasFinZ9iTaUBC0-71" style="rounded=0;orthogonalLoop=1;jettySize=auto;html=1;exitX=-0.001;exitY=0.13;exitDx=0;exitDy=0;exitPerimeter=0;entryX=1;entryY=0.099;entryDx=0;entryDy=0;entryPerimeter=0;" parent="1" edge="1">
          <mxGeometry relative="1" as="geometry">
            <mxPoint x="309.6" y="334.5" as="sourcePoint" />
            <mxPoint x="189.99999999999997" y="333.68" as="targetPoint" />
          </mxGeometry>
        </mxCell>
        <mxCell id="tb72shasFinZ9iTaUBC0-72" value="Rental Response" style="edgeLabel;html=1;align=center;verticalAlign=middle;resizable=0;points=[];fontSize=7;" parent="tb72shasFinZ9iTaUBC0-71" vertex="1" connectable="0">
          <mxGeometry x="-0.2845" relative="1" as="geometry">
            <mxPoint x="-11" y="-6" as="offset" />
          </mxGeometry>
        </mxCell>
        <mxCell id="tb72shasFinZ9iTaUBC0-73" style="rounded=0;orthogonalLoop=1;jettySize=auto;html=1;exitX=-0.001;exitY=0.13;exitDx=0;exitDy=0;exitPerimeter=0;entryX=1;entryY=0.099;entryDx=0;entryDy=0;entryPerimeter=0;" parent="1" edge="1">
          <mxGeometry relative="1" as="geometry">
            <mxPoint x="309.6" y="366.5" as="sourcePoint" />
            <mxPoint x="189.99999999999997" y="365.68" as="targetPoint" />
          </mxGeometry>
        </mxCell>
        <mxCell id="tb72shasFinZ9iTaUBC0-74" value="Return Response" style="edgeLabel;html=1;align=center;verticalAlign=middle;resizable=0;points=[];fontSize=7;" parent="tb72shasFinZ9iTaUBC0-73" vertex="1" connectable="0">
          <mxGeometry x="-0.2845" relative="1" as="geometry">
            <mxPoint x="-11" y="-6" as="offset" />
          </mxGeometry>
        </mxCell>
        <mxCell id="tb72shasFinZ9iTaUBC0-75" style="rounded=0;orthogonalLoop=1;jettySize=auto;html=1;exitX=0.998;exitY=0.07;exitDx=0;exitDy=0;exitPerimeter=0;entryX=-0.001;entryY=0.097;entryDx=0;entryDy=0;entryPerimeter=0;" parent="1" edge="1">
          <mxGeometry relative="1" as="geometry">
            <mxPoint x="190" y="350.99999999999994" as="sourcePoint" />
            <mxPoint x="310" y="352" as="targetPoint" />
          </mxGeometry>
        </mxCell>
        <mxCell id="tb72shasFinZ9iTaUBC0-76" value="Return DVDs" style="edgeLabel;html=1;align=center;verticalAlign=middle;resizable=0;points=[];fontSize=7;" parent="tb72shasFinZ9iTaUBC0-75" vertex="1" connectable="0">
          <mxGeometry x="-0.2845" relative="1" as="geometry">
            <mxPoint x="15" y="-6" as="offset" />
          </mxGeometry>
        </mxCell>
        <mxCell id="tb72shasFinZ9iTaUBC0-77" style="rounded=0;orthogonalLoop=1;jettySize=auto;html=1;exitX=-0.001;exitY=0.13;exitDx=0;exitDy=0;exitPerimeter=0;entryX=1;entryY=0.099;entryDx=0;entryDy=0;entryPerimeter=0;" parent="1" edge="1">
          <mxGeometry relative="1" as="geometry">
            <mxPoint x="309.6" y="398.5" as="sourcePoint" />
            <mxPoint x="189.99999999999997" y="397.68" as="targetPoint" />
          </mxGeometry>
        </mxCell>
        <mxCell id="tb72shasFinZ9iTaUBC0-78" value="Reserve Response" style="edgeLabel;html=1;align=center;verticalAlign=middle;resizable=0;points=[];fontSize=7;" parent="tb72shasFinZ9iTaUBC0-77" vertex="1" connectable="0">
          <mxGeometry x="-0.2845" relative="1" as="geometry">
            <mxPoint x="-11" y="-6" as="offset" />
          </mxGeometry>
        </mxCell>
        <mxCell id="tb72shasFinZ9iTaUBC0-79" style="rounded=0;orthogonalLoop=1;jettySize=auto;html=1;exitX=0.998;exitY=0.07;exitDx=0;exitDy=0;exitPerimeter=0;entryX=-0.001;entryY=0.097;entryDx=0;entryDy=0;entryPerimeter=0;" parent="1" edge="1">
          <mxGeometry relative="1" as="geometry">
            <mxPoint x="190" y="382.99999999999994" as="sourcePoint" />
            <mxPoint x="310" y="384" as="targetPoint" />
          </mxGeometry>
        </mxCell>
        <mxCell id="tb72shasFinZ9iTaUBC0-80" value="Reserve DVDs" style="edgeLabel;html=1;align=center;verticalAlign=middle;resizable=0;points=[];fontSize=7;" parent="tb72shasFinZ9iTaUBC0-79" vertex="1" connectable="0">
          <mxGeometry x="-0.2845" relative="1" as="geometry">
            <mxPoint x="15" y="-6" as="offset" />
          </mxGeometry>
        </mxCell>
        <mxCell id="tb72shasFinZ9iTaUBC0-81" value="Business Context diagram" style="text;html=1;align=center;verticalAlign=middle;whiteSpace=wrap;rounded=0;" parent="1" vertex="1">
          <mxGeometry x="315" y="650" width="150" height="20" as="geometry" />
        </mxCell>
        <mxCell id="tb72shasFinZ9iTaUBC0-82" value="align all the message/response properly" style="text;html=1;align=center;verticalAlign=middle;resizable=0;points=[];autosize=1;strokeColor=#b85450;fillColor=#FF3333;fontColor=#FFFFFF;fontSize=17;" parent="1" vertex="1">
          <mxGeometry x="245" y="580" width="320" height="30" as="geometry" />
        </mxCell>
        <mxCell id="tb72shasFinZ9iTaUBC0-83" value="Class diagram" style="text;html=1;align=center;verticalAlign=middle;whiteSpace=wrap;rounded=0;" parent="1" vertex="1">
          <mxGeometry x="1440" y="20" width="150" height="20" as="geometry" />
        </mxCell>
        <mxCell id="tb72shasFinZ9iTaUBC0-84" value="Order Form" style="swimlane;fontStyle=0;childLayout=stackLayout;horizontal=1;startSize=26;fillColor=none;horizontalStack=0;resizeParent=1;resizeParentMax=0;resizeLast=0;collapsible=1;marginBottom=0;whiteSpace=wrap;html=1;" parent="1" vertex="1">
          <mxGeometry x="1100" y="60" width="140" height="208" as="geometry" />
        </mxCell>
        <mxCell id="tb72shasFinZ9iTaUBC0-85" value="Order Number" style="text;strokeColor=none;fillColor=none;align=left;verticalAlign=top;spacingLeft=4;spacingRight=4;overflow=hidden;rotatable=0;points=[[0,0.5],[1,0.5]];portConstraint=eastwest;whiteSpace=wrap;html=1;" parent="tb72shasFinZ9iTaUBC0-84" vertex="1">
          <mxGeometry y="26" width="140" height="26" as="geometry" />
        </mxCell>
        <mxCell id="tb72shasFinZ9iTaUBC0-86" value="Order Date" style="text;strokeColor=none;fillColor=none;align=left;verticalAlign=top;spacingLeft=4;spacingRight=4;overflow=hidden;rotatable=0;points=[[0,0.5],[1,0.5]];portConstraint=eastwest;whiteSpace=wrap;html=1;" parent="tb72shasFinZ9iTaUBC0-84" vertex="1">
          <mxGeometry y="52" width="140" height="26" as="geometry" />
        </mxCell>
        <mxCell id="tb72shasFinZ9iTaUBC0-87" value="Store Name" style="text;strokeColor=none;fillColor=none;align=left;verticalAlign=top;spacingLeft=4;spacingRight=4;overflow=hidden;rotatable=0;points=[[0,0.5],[1,0.5]];portConstraint=eastwest;whiteSpace=wrap;html=1;" parent="tb72shasFinZ9iTaUBC0-84" vertex="1">
          <mxGeometry y="78" width="140" height="26" as="geometry" />
        </mxCell>
        <mxCell id="tb72shasFinZ9iTaUBC0-88" value="Address" style="text;strokeColor=none;fillColor=none;align=left;verticalAlign=top;spacingLeft=4;spacingRight=4;overflow=hidden;rotatable=0;points=[[0,0.5],[1,0.5]];portConstraint=eastwest;whiteSpace=wrap;html=1;" parent="tb72shasFinZ9iTaUBC0-84" vertex="1">
          <mxGeometry y="104" width="140" height="26" as="geometry" />
        </mxCell>
        <mxCell id="tb72shasFinZ9iTaUBC0-89" value="Telephone Number" style="text;strokeColor=none;fillColor=none;align=left;verticalAlign=top;spacingLeft=4;spacingRight=4;overflow=hidden;rotatable=0;points=[[0,0.5],[1,0.5]];portConstraint=eastwest;whiteSpace=wrap;html=1;" parent="tb72shasFinZ9iTaUBC0-84" vertex="1">
          <mxGeometry y="130" width="140" height="26" as="geometry" />
        </mxCell>
        <mxCell id="tb72shasFinZ9iTaUBC0-90" value="Email Address" style="text;strokeColor=none;fillColor=none;align=left;verticalAlign=top;spacingLeft=4;spacingRight=4;overflow=hidden;rotatable=0;points=[[0,0.5],[1,0.5]];portConstraint=eastwest;whiteSpace=wrap;html=1;" parent="tb72shasFinZ9iTaUBC0-84" vertex="1">
          <mxGeometry y="156" width="140" height="26" as="geometry" />
        </mxCell>
        <mxCell id="tb72shasFinZ9iTaUBC0-107" value="Total Cost" style="text;strokeColor=none;fillColor=none;align=left;verticalAlign=top;spacingLeft=4;spacingRight=4;overflow=hidden;rotatable=0;points=[[0,0.5],[1,0.5]];portConstraint=eastwest;whiteSpace=wrap;html=1;" parent="tb72shasFinZ9iTaUBC0-84" vertex="1">
          <mxGeometry y="182" width="140" height="26" as="geometry" />
        </mxCell>
        <mxCell id="tb72shasFinZ9iTaUBC0-98" value="Order Line" style="swimlane;fontStyle=0;childLayout=stackLayout;horizontal=1;startSize=26;fillColor=none;horizontalStack=0;resizeParent=1;resizeParentMax=0;resizeLast=0;collapsible=1;marginBottom=0;whiteSpace=wrap;html=1;" parent="1" vertex="1">
          <mxGeometry x="1360" y="86" width="140" height="156" as="geometry" />
        </mxCell>
        <mxCell id="tb72shasFinZ9iTaUBC0-99" value="DVD Title" style="text;strokeColor=none;fillColor=none;align=left;verticalAlign=top;spacingLeft=4;spacingRight=4;overflow=hidden;rotatable=0;points=[[0,0.5],[1,0.5]];portConstraint=eastwest;whiteSpace=wrap;html=1;" parent="tb72shasFinZ9iTaUBC0-98" vertex="1">
          <mxGeometry y="26" width="140" height="26" as="geometry" />
        </mxCell>
        <mxCell id="tb72shasFinZ9iTaUBC0-100" value="Release Year" style="text;strokeColor=none;fillColor=none;align=left;verticalAlign=top;spacingLeft=4;spacingRight=4;overflow=hidden;rotatable=0;points=[[0,0.5],[1,0.5]];portConstraint=eastwest;whiteSpace=wrap;html=1;" parent="tb72shasFinZ9iTaUBC0-98" vertex="1">
          <mxGeometry y="52" width="140" height="26" as="geometry" />
        </mxCell>
        <mxCell id="tb72shasFinZ9iTaUBC0-101" value="Copy Price" style="text;strokeColor=none;fillColor=none;align=left;verticalAlign=top;spacingLeft=4;spacingRight=4;overflow=hidden;rotatable=0;points=[[0,0.5],[1,0.5]];portConstraint=eastwest;whiteSpace=wrap;html=1;" parent="tb72shasFinZ9iTaUBC0-98" vertex="1">
          <mxGeometry y="78" width="140" height="26" as="geometry" />
        </mxCell>
        <mxCell id="tb72shasFinZ9iTaUBC0-102" value="No. of Copies" style="text;strokeColor=none;fillColor=none;align=left;verticalAlign=top;spacingLeft=4;spacingRight=4;overflow=hidden;rotatable=0;points=[[0,0.5],[1,0.5]];portConstraint=eastwest;whiteSpace=wrap;html=1;" parent="tb72shasFinZ9iTaUBC0-98" vertex="1">
          <mxGeometry y="104" width="140" height="26" as="geometry" />
        </mxCell>
        <mxCell id="tb72shasFinZ9iTaUBC0-103" value="Sub Total Cost" style="text;strokeColor=none;fillColor=none;align=left;verticalAlign=top;spacingLeft=4;spacingRight=4;overflow=hidden;rotatable=0;points=[[0,0.5],[1,0.5]];portConstraint=eastwest;whiteSpace=wrap;html=1;" parent="tb72shasFinZ9iTaUBC0-98" vertex="1">
          <mxGeometry y="130" width="140" height="26" as="geometry" />
        </mxCell>
        <mxCell id="tb72shasFinZ9iTaUBC0-106" value="" style="endArrow=diamondThin;endFill=0;endSize=24;html=1;rounded=0;edgeStyle=orthogonalEdgeStyle;" parent="1" source="tb72shasFinZ9iTaUBC0-128" target="tb72shasFinZ9iTaUBC0-141" edge="1">
          <mxGeometry width="160" relative="1" as="geometry">
            <mxPoint x="1490" y="480" as="sourcePoint" />
            <mxPoint x="1650" y="480" as="targetPoint" />
            <Array as="points">
              <mxPoint x="1560" y="420" />
              <mxPoint x="1640" y="420" />
            </Array>
          </mxGeometry>
        </mxCell>
        <mxCell id="tb72shasFinZ9iTaUBC0-105" value="" style="endArrow=diamondThin;endFill=1;endSize=24;html=1;rounded=0;edgeStyle=orthogonalEdgeStyle;" parent="1" source="tb72shasFinZ9iTaUBC0-98" target="tb72shasFinZ9iTaUBC0-84" edge="1">
          <mxGeometry width="160" relative="1" as="geometry">
            <mxPoint x="1170" y="202.66" as="sourcePoint" />
            <mxPoint x="1330" y="202.66" as="targetPoint" />
          </mxGeometry>
        </mxCell>
        <mxCell id="tb72shasFinZ9iTaUBC0-108" value="DVD" style="swimlane;fontStyle=0;childLayout=stackLayout;horizontal=1;startSize=26;fillColor=none;horizontalStack=0;resizeParent=1;resizeParentMax=0;resizeLast=0;collapsible=1;marginBottom=0;whiteSpace=wrap;html=1;" parent="1" vertex="1">
          <mxGeometry x="1100" y="290" width="140" height="182" as="geometry" />
        </mxCell>
        <mxCell id="tb72shasFinZ9iTaUBC0-109" value="Barcode&lt;span style=&quot;white-space: pre;&quot;&gt;&#x9;&lt;/span&gt;" style="text;strokeColor=none;fillColor=none;align=left;verticalAlign=top;spacingLeft=4;spacingRight=4;overflow=hidden;rotatable=0;points=[[0,0.5],[1,0.5]];portConstraint=eastwest;whiteSpace=wrap;html=1;" parent="tb72shasFinZ9iTaUBC0-108" vertex="1">
          <mxGeometry y="26" width="140" height="26" as="geometry" />
        </mxCell>
        <mxCell id="tb72shasFinZ9iTaUBC0-110" value="Title" style="text;strokeColor=none;fillColor=none;align=left;verticalAlign=top;spacingLeft=4;spacingRight=4;overflow=hidden;rotatable=0;points=[[0,0.5],[1,0.5]];portConstraint=eastwest;whiteSpace=wrap;html=1;" parent="tb72shasFinZ9iTaUBC0-108" vertex="1">
          <mxGeometry y="52" width="140" height="26" as="geometry" />
        </mxCell>
        <mxCell id="tb72shasFinZ9iTaUBC0-111" value="Producer" style="text;strokeColor=none;fillColor=none;align=left;verticalAlign=top;spacingLeft=4;spacingRight=4;overflow=hidden;rotatable=0;points=[[0,0.5],[1,0.5]];portConstraint=eastwest;whiteSpace=wrap;html=1;" parent="tb72shasFinZ9iTaUBC0-108" vertex="1">
          <mxGeometry y="78" width="140" height="26" as="geometry" />
        </mxCell>
        <mxCell id="tb72shasFinZ9iTaUBC0-112" value="Selling Price" style="text;strokeColor=none;fillColor=none;align=left;verticalAlign=top;spacingLeft=4;spacingRight=4;overflow=hidden;rotatable=0;points=[[0,0.5],[1,0.5]];portConstraint=eastwest;whiteSpace=wrap;html=1;" parent="tb72shasFinZ9iTaUBC0-108" vertex="1">
          <mxGeometry y="104" width="140" height="26" as="geometry" />
        </mxCell>
        <mxCell id="tb72shasFinZ9iTaUBC0-113" value="Rental Price" style="text;strokeColor=none;fillColor=none;align=left;verticalAlign=top;spacingLeft=4;spacingRight=4;overflow=hidden;rotatable=0;points=[[0,0.5],[1,0.5]];portConstraint=eastwest;whiteSpace=wrap;html=1;" parent="tb72shasFinZ9iTaUBC0-108" vertex="1">
          <mxGeometry y="130" width="140" height="26" as="geometry" />
        </mxCell>
        <mxCell id="tb72shasFinZ9iTaUBC0-120" value="No. of Copies" style="text;strokeColor=none;fillColor=none;align=left;verticalAlign=top;spacingLeft=4;spacingRight=4;overflow=hidden;rotatable=0;points=[[0,0.5],[1,0.5]];portConstraint=eastwest;whiteSpace=wrap;html=1;" parent="tb72shasFinZ9iTaUBC0-108" vertex="1">
          <mxGeometry y="156" width="140" height="26" as="geometry" />
        </mxCell>
        <mxCell id="tb72shasFinZ9iTaUBC0-121" value="Rented DVD" style="swimlane;fontStyle=0;childLayout=stackLayout;horizontal=1;startSize=26;fillColor=none;horizontalStack=0;resizeParent=1;resizeParentMax=0;resizeLast=0;collapsible=1;marginBottom=0;whiteSpace=wrap;html=1;" parent="1" vertex="1">
          <mxGeometry x="1100" y="559" width="140" height="78" as="geometry" />
        </mxCell>
        <mxCell id="tb72shasFinZ9iTaUBC0-126" value="Copy Number" style="text;strokeColor=none;fillColor=none;align=left;verticalAlign=top;spacingLeft=4;spacingRight=4;overflow=hidden;rotatable=0;points=[[0,0.5],[1,0.5]];portConstraint=eastwest;whiteSpace=wrap;html=1;" parent="tb72shasFinZ9iTaUBC0-121" vertex="1">
          <mxGeometry y="26" width="140" height="26" as="geometry" />
        </mxCell>
        <mxCell id="tb72shasFinZ9iTaUBC0-127" value="Status" style="text;strokeColor=none;fillColor=none;align=left;verticalAlign=top;spacingLeft=4;spacingRight=4;overflow=hidden;rotatable=0;points=[[0,0.5],[1,0.5]];portConstraint=eastwest;whiteSpace=wrap;html=1;" parent="tb72shasFinZ9iTaUBC0-121" vertex="1">
          <mxGeometry y="52" width="140" height="26" as="geometry" />
        </mxCell>
        <mxCell id="tb72shasFinZ9iTaUBC0-128" value="Customer" style="swimlane;fontStyle=0;childLayout=stackLayout;horizontal=1;startSize=26;fillColor=none;horizontalStack=0;resizeParent=1;resizeParentMax=0;resizeLast=0;collapsible=1;marginBottom=0;whiteSpace=wrap;html=1;" parent="1" vertex="1">
          <mxGeometry x="1460" y="280" width="140" height="78" as="geometry" />
        </mxCell>
        <mxCell id="tb72shasFinZ9iTaUBC0-130" value="Home Address" style="text;strokeColor=none;fillColor=none;align=left;verticalAlign=top;spacingLeft=4;spacingRight=4;overflow=hidden;rotatable=0;points=[[0,0.5],[1,0.5]];portConstraint=eastwest;whiteSpace=wrap;html=1;" parent="tb72shasFinZ9iTaUBC0-128" vertex="1">
          <mxGeometry y="26" width="140" height="26" as="geometry" />
        </mxCell>
        <mxCell id="tb72shasFinZ9iTaUBC0-131" value="Telephone Number" style="text;strokeColor=none;fillColor=none;align=left;verticalAlign=top;spacingLeft=4;spacingRight=4;overflow=hidden;rotatable=0;points=[[0,0.5],[1,0.5]];portConstraint=eastwest;whiteSpace=wrap;html=1;" parent="tb72shasFinZ9iTaUBC0-128" vertex="1">
          <mxGeometry y="52" width="140" height="26" as="geometry" />
        </mxCell>
        <mxCell id="tb72shasFinZ9iTaUBC0-135" value="Customer Card" style="swimlane;fontStyle=0;childLayout=stackLayout;horizontal=1;startSize=26;fillColor=none;horizontalStack=0;resizeParent=1;resizeParentMax=0;resizeLast=0;collapsible=1;marginBottom=0;whiteSpace=wrap;html=1;" parent="1" vertex="1">
          <mxGeometry x="1720" y="244" width="140" height="52" as="geometry" />
        </mxCell>
        <mxCell id="tb72shasFinZ9iTaUBC0-140" value="" style="endArrow=diamondThin;endFill=1;endSize=24;html=1;rounded=0;edgeStyle=orthogonalEdgeStyle;" parent="1" source="tb72shasFinZ9iTaUBC0-135" target="tb72shasFinZ9iTaUBC0-128" edge="1">
          <mxGeometry width="160" relative="1" as="geometry">
            <mxPoint x="1370" y="174" as="sourcePoint" />
            <mxPoint x="1250" y="174" as="targetPoint" />
            <Array as="points">
              <mxPoint x="1790" y="330" />
            </Array>
          </mxGeometry>
        </mxCell>
        <mxCell id="tb72shasFinZ9iTaUBC0-141" value="Rental Form" style="swimlane;fontStyle=0;childLayout=stackLayout;horizontal=1;startSize=26;fillColor=none;horizontalStack=0;resizeParent=1;resizeParentMax=0;resizeLast=0;collapsible=1;marginBottom=0;whiteSpace=wrap;html=1;" parent="1" vertex="1">
          <mxGeometry x="1580" y="520" width="140" height="130" as="geometry" />
        </mxCell>
        <mxCell id="tb72shasFinZ9iTaUBC0-142" value="Form Number" style="text;strokeColor=none;fillColor=none;align=left;verticalAlign=top;spacingLeft=4;spacingRight=4;overflow=hidden;rotatable=0;points=[[0,0.5],[1,0.5]];portConstraint=eastwest;whiteSpace=wrap;html=1;" parent="tb72shasFinZ9iTaUBC0-141" vertex="1">
          <mxGeometry y="26" width="140" height="26" as="geometry" />
        </mxCell>
        <mxCell id="tb72shasFinZ9iTaUBC0-143" value="Issue Date" style="text;strokeColor=none;fillColor=none;align=left;verticalAlign=top;spacingLeft=4;spacingRight=4;overflow=hidden;rotatable=0;points=[[0,0.5],[1,0.5]];portConstraint=eastwest;whiteSpace=wrap;html=1;" parent="tb72shasFinZ9iTaUBC0-141" vertex="1">
          <mxGeometry y="52" width="140" height="26" as="geometry" />
        </mxCell>
        <mxCell id="tb72shasFinZ9iTaUBC0-144" value="Return Date" style="text;strokeColor=none;fillColor=none;align=left;verticalAlign=top;spacingLeft=4;spacingRight=4;overflow=hidden;rotatable=0;points=[[0,0.5],[1,0.5]];portConstraint=eastwest;whiteSpace=wrap;html=1;" parent="tb72shasFinZ9iTaUBC0-141" vertex="1">
          <mxGeometry y="78" width="140" height="26" as="geometry" />
        </mxCell>
        <mxCell id="tb72shasFinZ9iTaUBC0-154" value="Total Rental Cost" style="text;strokeColor=none;fillColor=none;align=left;verticalAlign=top;spacingLeft=4;spacingRight=4;overflow=hidden;rotatable=0;points=[[0,0.5],[1,0.5]];portConstraint=eastwest;whiteSpace=wrap;html=1;" parent="tb72shasFinZ9iTaUBC0-141" vertex="1">
          <mxGeometry y="104" width="140" height="26" as="geometry" />
        </mxCell>
        <mxCell id="tb72shasFinZ9iTaUBC0-149" value="Rental Line" style="swimlane;fontStyle=0;childLayout=stackLayout;horizontal=1;startSize=26;fillColor=none;horizontalStack=0;resizeParent=1;resizeParentMax=0;resizeLast=0;collapsible=1;marginBottom=0;whiteSpace=wrap;html=1;" parent="1" vertex="1">
          <mxGeometry x="1820" y="533" width="140" height="104" as="geometry" />
        </mxCell>
        <mxCell id="tb72shasFinZ9iTaUBC0-150" value="DVD&#39;s Bar Code" style="text;strokeColor=none;fillColor=none;align=left;verticalAlign=top;spacingLeft=4;spacingRight=4;overflow=hidden;rotatable=0;points=[[0,0.5],[1,0.5]];portConstraint=eastwest;whiteSpace=wrap;html=1;" parent="tb72shasFinZ9iTaUBC0-149" vertex="1">
          <mxGeometry y="26" width="140" height="26" as="geometry" />
        </mxCell>
        <mxCell id="tb72shasFinZ9iTaUBC0-151" value="Title" style="text;strokeColor=none;fillColor=none;align=left;verticalAlign=top;spacingLeft=4;spacingRight=4;overflow=hidden;rotatable=0;points=[[0,0.5],[1,0.5]];portConstraint=eastwest;whiteSpace=wrap;html=1;" parent="tb72shasFinZ9iTaUBC0-149" vertex="1">
          <mxGeometry y="52" width="140" height="26" as="geometry" />
        </mxCell>
        <mxCell id="tb72shasFinZ9iTaUBC0-152" value="Rental Price" style="text;strokeColor=none;fillColor=none;align=left;verticalAlign=top;spacingLeft=4;spacingRight=4;overflow=hidden;rotatable=0;points=[[0,0.5],[1,0.5]];portConstraint=eastwest;whiteSpace=wrap;html=1;" parent="tb72shasFinZ9iTaUBC0-149" vertex="1">
          <mxGeometry y="78" width="140" height="26" as="geometry" />
        </mxCell>
        <mxCell id="tb72shasFinZ9iTaUBC0-157" value="Bank Card" style="swimlane;fontStyle=0;childLayout=stackLayout;horizontal=1;startSize=26;fillColor=none;horizontalStack=0;resizeParent=1;resizeParentMax=0;resizeLast=0;collapsible=1;marginBottom=0;whiteSpace=wrap;html=1;" parent="1" vertex="1">
          <mxGeometry x="1780" y="351" width="140" height="104" as="geometry" />
        </mxCell>
        <mxCell id="tb72shasFinZ9iTaUBC0-160" value="Bank Name" style="text;strokeColor=none;fillColor=none;align=left;verticalAlign=top;spacingLeft=4;spacingRight=4;overflow=hidden;rotatable=0;points=[[0,0.5],[1,0.5]];portConstraint=eastwest;whiteSpace=wrap;html=1;" parent="tb72shasFinZ9iTaUBC0-157" vertex="1">
          <mxGeometry y="26" width="140" height="26" as="geometry" />
        </mxCell>
        <mxCell id="tb72shasFinZ9iTaUBC0-161" value="Card Number" style="text;strokeColor=none;fillColor=none;align=left;verticalAlign=top;spacingLeft=4;spacingRight=4;overflow=hidden;rotatable=0;points=[[0,0.5],[1,0.5]];portConstraint=eastwest;whiteSpace=wrap;html=1;" parent="tb72shasFinZ9iTaUBC0-157" vertex="1">
          <mxGeometry y="52" width="140" height="26" as="geometry" />
        </mxCell>
        <mxCell id="tb72shasFinZ9iTaUBC0-162" value="Expiry Date" style="text;strokeColor=none;fillColor=none;align=left;verticalAlign=top;spacingLeft=4;spacingRight=4;overflow=hidden;rotatable=0;points=[[0,0.5],[1,0.5]];portConstraint=eastwest;whiteSpace=wrap;html=1;" parent="tb72shasFinZ9iTaUBC0-157" vertex="1">
          <mxGeometry y="78" width="140" height="26" as="geometry" />
        </mxCell>
        <mxCell id="tb72shasFinZ9iTaUBC0-159" value="" style="endArrow=diamondThin;endFill=0;endSize=24;html=1;rounded=0;edgeStyle=orthogonalEdgeStyle;" parent="1" source="tb72shasFinZ9iTaUBC0-157" target="tb72shasFinZ9iTaUBC0-128" edge="1">
          <mxGeometry width="160" relative="1" as="geometry">
            <mxPoint x="1550" y="440" as="sourcePoint" />
            <mxPoint x="1710" y="440" as="targetPoint" />
            <Array as="points">
              <mxPoint x="1690" y="403" />
              <mxPoint x="1690" y="300" />
            </Array>
          </mxGeometry>
        </mxCell>
        <mxCell id="tb72shasFinZ9iTaUBC0-165" value="" style="endArrow=none;html=1;rounded=0;edgeStyle=orthogonalEdgeStyle;" parent="1" source="tb72shasFinZ9iTaUBC0-149" target="tb72shasFinZ9iTaUBC0-141" edge="1">
          <mxGeometry width="50" height="50" relative="1" as="geometry">
            <mxPoint x="1410" y="580" as="sourcePoint" />
            <mxPoint x="1460" y="530" as="targetPoint" />
          </mxGeometry>
        </mxCell>
        <mxCell id="tb72shasFinZ9iTaUBC0-166" value="1..*" style="edgeLabel;html=1;align=center;verticalAlign=middle;resizable=0;points=[];" parent="tb72shasFinZ9iTaUBC0-165" vertex="1" connectable="0">
          <mxGeometry x="-0.2103" y="1" relative="1" as="geometry">
            <mxPoint x="27" y="-11" as="offset" />
          </mxGeometry>
        </mxCell>
        <mxCell id="tb72shasFinZ9iTaUBC0-167" value="1" style="edgeLabel;html=1;align=center;verticalAlign=middle;resizable=0;points=[];" parent="tb72shasFinZ9iTaUBC0-165" vertex="1" connectable="0">
          <mxGeometry x="-0.2103" y="1" relative="1" as="geometry">
            <mxPoint x="-54" y="-11" as="offset" />
          </mxGeometry>
        </mxCell>
        <mxCell id="tb72shasFinZ9iTaUBC0-168" value="" style="endArrow=none;html=1;rounded=0;edgeStyle=orthogonalEdgeStyle;" parent="1" source="tb72shasFinZ9iTaUBC0-121" target="tb72shasFinZ9iTaUBC0-108" edge="1">
          <mxGeometry width="50" height="50" relative="1" as="geometry">
            <mxPoint x="1540" y="565" as="sourcePoint" />
            <mxPoint x="1440" y="565" as="targetPoint" />
          </mxGeometry>
        </mxCell>
        <mxCell id="tb72shasFinZ9iTaUBC0-169" value="1" style="edgeLabel;html=1;align=center;verticalAlign=middle;resizable=0;points=[];" parent="tb72shasFinZ9iTaUBC0-168" vertex="1" connectable="0">
          <mxGeometry x="-0.2103" y="1" relative="1" as="geometry">
            <mxPoint x="-10" y="18" as="offset" />
          </mxGeometry>
        </mxCell>
        <mxCell id="tb72shasFinZ9iTaUBC0-170" value="0..*" style="edgeLabel;html=1;align=center;verticalAlign=middle;resizable=0;points=[];" parent="tb72shasFinZ9iTaUBC0-168" vertex="1" connectable="0">
          <mxGeometry x="-0.2103" y="1" relative="1" as="geometry">
            <mxPoint x="-9" y="-41" as="offset" />
          </mxGeometry>
        </mxCell>
        <mxCell id="tb72shasFinZ9iTaUBC0-177" value="Reservation" style="swimlane;fontStyle=0;childLayout=stackLayout;horizontal=1;startSize=26;fillColor=none;horizontalStack=0;resizeParent=1;resizeParentMax=0;resizeLast=0;collapsible=1;marginBottom=0;whiteSpace=wrap;html=1;" parent="1" vertex="1">
          <mxGeometry x="1560" y="86" width="140" height="130" as="geometry" />
        </mxCell>
        <mxCell id="tb72shasFinZ9iTaUBC0-178" value="Reservation Date" style="text;strokeColor=none;fillColor=none;align=left;verticalAlign=top;spacingLeft=4;spacingRight=4;overflow=hidden;rotatable=0;points=[[0,0.5],[1,0.5]];portConstraint=eastwest;whiteSpace=wrap;html=1;" parent="tb72shasFinZ9iTaUBC0-177" vertex="1">
          <mxGeometry y="26" width="140" height="26" as="geometry" />
        </mxCell>
        <mxCell id="tb72shasFinZ9iTaUBC0-180" value="Expiry Date" style="text;strokeColor=none;fillColor=none;align=left;verticalAlign=top;spacingLeft=4;spacingRight=4;overflow=hidden;rotatable=0;points=[[0,0.5],[1,0.5]];portConstraint=eastwest;whiteSpace=wrap;html=1;" parent="tb72shasFinZ9iTaUBC0-177" vertex="1">
          <mxGeometry y="52" width="140" height="26" as="geometry" />
        </mxCell>
        <mxCell id="tb72shasFinZ9iTaUBC0-182" value="DVD Barcode" style="text;strokeColor=none;fillColor=none;align=left;verticalAlign=top;spacingLeft=4;spacingRight=4;overflow=hidden;rotatable=0;points=[[0,0.5],[1,0.5]];portConstraint=eastwest;whiteSpace=wrap;html=1;" parent="tb72shasFinZ9iTaUBC0-177" vertex="1">
          <mxGeometry y="78" width="140" height="26" as="geometry" />
        </mxCell>
        <mxCell id="tb72shasFinZ9iTaUBC0-183" value="Title" style="text;strokeColor=none;fillColor=none;align=left;verticalAlign=top;spacingLeft=4;spacingRight=4;overflow=hidden;rotatable=0;points=[[0,0.5],[1,0.5]];portConstraint=eastwest;whiteSpace=wrap;html=1;" parent="tb72shasFinZ9iTaUBC0-177" vertex="1">
          <mxGeometry y="104" width="140" height="26" as="geometry" />
        </mxCell>
        <mxCell id="tb72shasFinZ9iTaUBC0-181" value="" style="endArrow=diamondThin;endFill=1;endSize=24;html=1;rounded=0;edgeStyle=orthogonalEdgeStyle;" parent="1" source="tb72shasFinZ9iTaUBC0-135" target="tb72shasFinZ9iTaUBC0-177" edge="1">
          <mxGeometry width="160" relative="1" as="geometry">
            <mxPoint x="1630" y="250" as="sourcePoint" />
            <mxPoint x="1520" y="290" as="targetPoint" />
            <Array as="points">
              <mxPoint x="1650" y="180" />
              <mxPoint x="1650" y="180" />
            </Array>
          </mxGeometry>
        </mxCell>
        <mxCell id="uCanH5rlfd1NPs6zXA0Y-1" value="User" style="swimlane;fontStyle=0;childLayout=stackLayout;horizontal=1;startSize=26;fillColor=none;horizontalStack=0;resizeParent=1;resizeParentMax=0;resizeLast=0;collapsible=1;marginBottom=0;whiteSpace=wrap;html=1;" vertex="1" parent="1">
          <mxGeometry x="1300" y="364" width="140" height="78" as="geometry" />
        </mxCell>
        <mxCell id="uCanH5rlfd1NPs6zXA0Y-2" value="Name" style="text;strokeColor=none;fillColor=none;align=left;verticalAlign=top;spacingLeft=4;spacingRight=4;overflow=hidden;rotatable=0;points=[[0,0.5],[1,0.5]];portConstraint=eastwest;whiteSpace=wrap;html=1;" vertex="1" parent="uCanH5rlfd1NPs6zXA0Y-1">
          <mxGeometry y="26" width="140" height="26" as="geometry" />
        </mxCell>
        <mxCell id="uCanH5rlfd1NPs6zXA0Y-5" value="Email Address" style="text;strokeColor=none;fillColor=none;align=left;verticalAlign=top;spacingLeft=4;spacingRight=4;overflow=hidden;rotatable=0;points=[[0,0.5],[1,0.5]];portConstraint=eastwest;whiteSpace=wrap;html=1;" vertex="1" parent="uCanH5rlfd1NPs6zXA0Y-1">
          <mxGeometry y="52" width="140" height="26" as="geometry" />
        </mxCell>
        <mxCell id="uCanH5rlfd1NPs6zXA0Y-6" value="" style="endArrow=block;endSize=16;endFill=0;html=1;rounded=0;edgeStyle=orthogonalEdgeStyle;" edge="1" parent="1" source="tb72shasFinZ9iTaUBC0-128" target="uCanH5rlfd1NPs6zXA0Y-1">
          <mxGeometry width="160" relative="1" as="geometry">
            <mxPoint x="1400" y="490" as="sourcePoint" />
            <mxPoint x="1560" y="490" as="targetPoint" />
          </mxGeometry>
        </mxCell>
        <mxCell id="uCanH5rlfd1NPs6zXA0Y-7" value="Store Clerk" style="swimlane;fontStyle=0;childLayout=stackLayout;horizontal=1;startSize=26;fillColor=none;horizontalStack=0;resizeParent=1;resizeParentMax=0;resizeLast=0;collapsible=1;marginBottom=0;whiteSpace=wrap;html=1;" vertex="1" parent="1">
          <mxGeometry x="1404" y="507" width="140" height="52" as="geometry" />
        </mxCell>
        <mxCell id="uCanH5rlfd1NPs6zXA0Y-8" value="Employee Number" style="text;strokeColor=none;fillColor=none;align=left;verticalAlign=top;spacingLeft=4;spacingRight=4;overflow=hidden;rotatable=0;points=[[0,0.5],[1,0.5]];portConstraint=eastwest;whiteSpace=wrap;html=1;" vertex="1" parent="uCanH5rlfd1NPs6zXA0Y-7">
          <mxGeometry y="26" width="140" height="26" as="geometry" />
        </mxCell>
        <mxCell id="uCanH5rlfd1NPs6zXA0Y-10" value="Store Manager" style="swimlane;fontStyle=0;childLayout=stackLayout;horizontal=1;startSize=26;fillColor=none;horizontalStack=0;resizeParent=1;resizeParentMax=0;resizeLast=0;collapsible=1;marginBottom=0;whiteSpace=wrap;html=1;" vertex="1" parent="1">
          <mxGeometry x="1244" y="507" width="140" height="52" as="geometry" />
        </mxCell>
        <mxCell id="uCanH5rlfd1NPs6zXA0Y-12" value="Employee Number" style="text;strokeColor=none;fillColor=none;align=left;verticalAlign=top;spacingLeft=4;spacingRight=4;overflow=hidden;rotatable=0;points=[[0,0.5],[1,0.5]];portConstraint=eastwest;whiteSpace=wrap;html=1;" vertex="1" parent="uCanH5rlfd1NPs6zXA0Y-10">
          <mxGeometry y="26" width="140" height="26" as="geometry" />
        </mxCell>
        <mxCell id="uCanH5rlfd1NPs6zXA0Y-13" value="" style="endArrow=block;endSize=16;endFill=0;html=1;rounded=0;edgeStyle=orthogonalEdgeStyle;" edge="1" parent="1" source="uCanH5rlfd1NPs6zXA0Y-7" target="uCanH5rlfd1NPs6zXA0Y-1">
          <mxGeometry width="160" relative="1" as="geometry">
            <mxPoint x="1570" y="431" as="sourcePoint" />
            <mxPoint x="1460" y="480" as="targetPoint" />
          </mxGeometry>
        </mxCell>
        <mxCell id="uCanH5rlfd1NPs6zXA0Y-14" value="" style="endArrow=block;endSize=16;endFill=0;html=1;rounded=0;edgeStyle=orthogonalEdgeStyle;" edge="1" parent="1" source="uCanH5rlfd1NPs6zXA0Y-10" target="uCanH5rlfd1NPs6zXA0Y-1">
          <mxGeometry width="160" relative="1" as="geometry">
            <mxPoint x="1330" y="506" as="sourcePoint" />
            <mxPoint x="1380" y="452" as="targetPoint" />
          </mxGeometry>
        </mxCell>
        <mxCell id="uCanH5rlfd1NPs6zXA0Y-15" value="" style="endArrow=diamondThin;endFill=0;endSize=24;html=1;rounded=0;edgeStyle=orthogonalEdgeStyle;" edge="1" parent="1" source="uCanH5rlfd1NPs6zXA0Y-7" target="tb72shasFinZ9iTaUBC0-141">
          <mxGeometry width="160" relative="1" as="geometry">
            <mxPoint x="1400" y="620" as="sourcePoint" />
            <mxPoint x="1560" y="620" as="targetPoint" />
            <Array as="points">
              <mxPoint x="1470" y="585" />
            </Array>
          </mxGeometry>
        </mxCell>
        <mxCell id="uCanH5rlfd1NPs6zXA0Y-16" value="Vertical Swim Lanes" style="text;html=1;align=center;verticalAlign=middle;whiteSpace=wrap;rounded=0;" vertex="1" parent="1">
          <mxGeometry x="330" y="1420" width="150" height="20" as="geometry" />
        </mxCell>
        <mxCell id="uCanH5rlfd1NPs6zXA0Y-21" value="Rent DVD" style="swimlane;childLayout=stackLayout;resizeParent=1;resizeParentMax=0;startSize=20;horizontal=0;horizontalStack=1;" vertex="1" parent="1">
          <mxGeometry x="200" y="1463" width="380" height="480" as="geometry" />
        </mxCell>
        <mxCell id="uCanH5rlfd1NPs6zXA0Y-22" value="Lane 1" style="swimlane;startSize=20;" vertex="1" parent="uCanH5rlfd1NPs6zXA0Y-21">
          <mxGeometry x="20" width="120" height="480" as="geometry" />
        </mxCell>
        <mxCell id="uCanH5rlfd1NPs6zXA0Y-23" value="Lane 2" style="swimlane;startSize=20;" vertex="1" parent="uCanH5rlfd1NPs6zXA0Y-21">
          <mxGeometry x="140" width="120" height="480" as="geometry" />
        </mxCell>
        <mxCell id="uCanH5rlfd1NPs6zXA0Y-24" value="Lane 3" style="swimlane;startSize=20;" vertex="1" parent="uCanH5rlfd1NPs6zXA0Y-21">
          <mxGeometry x="260" width="120" height="480" as="geometry" />
        </mxCell>
        <mxCell id="uCanH5rlfd1NPs6zXA0Y-104" value="Movie/Game&amp;nbsp;&lt;span style=&quot;background-color: initial;&quot;&gt;DVD&amp;nbsp;&lt;/span&gt;&lt;div&gt;Rental System&lt;/div&gt;" style="rounded=1;whiteSpace=wrap;html=1;fontStyle=1;fontSize=15;" vertex="1" parent="1">
          <mxGeometry x="290" y="680" width="200" height="690" as="geometry" />
        </mxCell>
        <mxCell id="uCanH5rlfd1NPs6zXA0Y-105" value="DVD Order&lt;div&gt;Service&lt;/div&gt;" style="rounded=1;whiteSpace=wrap;html=1;fontStyle=0;fontSize=15;" vertex="1" parent="1">
          <mxGeometry x="607.4" y="699" width="140" height="131" as="geometry" />
        </mxCell>
        <mxCell id="uCanH5rlfd1NPs6zXA0Y-106" style="rounded=0;orthogonalLoop=1;jettySize=auto;html=1;exitX=0.998;exitY=0.07;exitDx=0;exitDy=0;exitPerimeter=0;entryX=0;entryY=0.25;entryDx=0;entryDy=0;" edge="1" parent="1">
          <mxGeometry relative="1" as="geometry">
            <mxPoint x="490" y="724.4" as="sourcePoint" />
            <mxPoint x="607.4" y="725" as="targetPoint" />
          </mxGeometry>
        </mxCell>
        <mxCell id="uCanH5rlfd1NPs6zXA0Y-107" value="Get Current Price" style="edgeLabel;html=1;align=center;verticalAlign=middle;resizable=0;points=[];fontSize=7;" vertex="1" connectable="0" parent="uCanH5rlfd1NPs6zXA0Y-106">
          <mxGeometry x="-0.2845" relative="1" as="geometry">
            <mxPoint x="15" y="-6" as="offset" />
          </mxGeometry>
        </mxCell>
        <mxCell id="uCanH5rlfd1NPs6zXA0Y-108" style="rounded=0;orthogonalLoop=1;jettySize=auto;html=1;exitX=0.003;exitY=0.366;exitDx=0;exitDy=0;exitPerimeter=0;entryX=1;entryY=0.099;entryDx=0;entryDy=0;entryPerimeter=0;" edge="1" parent="1">
          <mxGeometry relative="1" as="geometry">
            <mxPoint x="607.82" y="738.92" as="sourcePoint" />
            <mxPoint x="490.4" y="738.58" as="targetPoint" />
          </mxGeometry>
        </mxCell>
        <mxCell id="uCanH5rlfd1NPs6zXA0Y-109" value="Current Price Response" style="edgeLabel;html=1;align=center;verticalAlign=middle;resizable=0;points=[];fontSize=7;" vertex="1" connectable="0" parent="uCanH5rlfd1NPs6zXA0Y-108">
          <mxGeometry x="-0.2845" relative="1" as="geometry">
            <mxPoint x="-11" y="-6" as="offset" />
          </mxGeometry>
        </mxCell>
        <mxCell id="uCanH5rlfd1NPs6zXA0Y-110" style="rounded=0;orthogonalLoop=1;jettySize=auto;html=1;exitX=1.001;exitY=0.16;exitDx=0;exitDy=0;exitPerimeter=0;entryX=-0.002;entryY=0.563;entryDx=0;entryDy=0;entryPerimeter=0;" edge="1" parent="1">
          <mxGeometry relative="1" as="geometry">
            <mxPoint x="490.6" y="760.2" as="sourcePoint" />
            <mxPoint x="607.12" y="760.56" as="targetPoint" />
          </mxGeometry>
        </mxCell>
        <mxCell id="uCanH5rlfd1NPs6zXA0Y-111" value="Get DVD Catalogue" style="edgeLabel;html=1;align=center;verticalAlign=middle;resizable=0;points=[];fontSize=7;" vertex="1" connectable="0" parent="uCanH5rlfd1NPs6zXA0Y-110">
          <mxGeometry x="-0.2845" relative="1" as="geometry">
            <mxPoint x="15" y="-6" as="offset" />
          </mxGeometry>
        </mxCell>
        <mxCell id="uCanH5rlfd1NPs6zXA0Y-112" style="rounded=0;orthogonalLoop=1;jettySize=auto;html=1;exitX=-0.005;exitY=0.672;exitDx=0;exitDy=0;exitPerimeter=0;entryX=0.999;entryY=0.192;entryDx=0;entryDy=0;entryPerimeter=0;" edge="1" parent="1">
          <mxGeometry relative="1" as="geometry">
            <mxPoint x="606.6999999999999" y="773.64" as="sourcePoint" />
            <mxPoint x="490.19999999999993" y="773.64" as="targetPoint" />
          </mxGeometry>
        </mxCell>
        <mxCell id="uCanH5rlfd1NPs6zXA0Y-113" value="DVD Catalogue Response" style="edgeLabel;html=1;align=center;verticalAlign=middle;resizable=0;points=[];fontSize=7;" vertex="1" connectable="0" parent="uCanH5rlfd1NPs6zXA0Y-112">
          <mxGeometry x="-0.2845" relative="1" as="geometry">
            <mxPoint x="-11" y="-6" as="offset" />
          </mxGeometry>
        </mxCell>
        <mxCell id="uCanH5rlfd1NPs6zXA0Y-114" style="rounded=0;orthogonalLoop=1;jettySize=auto;html=1;exitX=1;exitY=0.228;exitDx=0;exitDy=0;exitPerimeter=0;entryX=0.002;entryY=0.793;entryDx=0;entryDy=0;entryPerimeter=0;" edge="1" parent="1">
          <mxGeometry relative="1" as="geometry">
            <mxPoint x="490.4" y="790.76" as="sourcePoint" />
            <mxPoint x="607.68" y="790.16" as="targetPoint" />
          </mxGeometry>
        </mxCell>
        <mxCell id="uCanH5rlfd1NPs6zXA0Y-115" value="Order DVD" style="edgeLabel;html=1;align=center;verticalAlign=middle;resizable=0;points=[];fontSize=7;" vertex="1" connectable="0" parent="uCanH5rlfd1NPs6zXA0Y-114">
          <mxGeometry x="-0.2845" relative="1" as="geometry">
            <mxPoint x="15" y="-6" as="offset" />
          </mxGeometry>
        </mxCell>
        <mxCell id="uCanH5rlfd1NPs6zXA0Y-116" style="rounded=0;orthogonalLoop=1;jettySize=auto;html=1;entryX=1;entryY=0.258;entryDx=0;entryDy=0;entryPerimeter=0;" edge="1" parent="1">
          <mxGeometry relative="1" as="geometry">
            <mxPoint x="608" y="804" as="sourcePoint" />
            <mxPoint x="490.4" y="803.36" as="targetPoint" />
          </mxGeometry>
        </mxCell>
        <mxCell id="uCanH5rlfd1NPs6zXA0Y-117" value="Order Result Response" style="edgeLabel;html=1;align=center;verticalAlign=middle;resizable=0;points=[];fontSize=7;" vertex="1" connectable="0" parent="uCanH5rlfd1NPs6zXA0Y-116">
          <mxGeometry x="-0.2845" relative="1" as="geometry">
            <mxPoint x="-11" y="-6" as="offset" />
          </mxGeometry>
        </mxCell>
        <mxCell id="uCanH5rlfd1NPs6zXA0Y-126" value="DVD Rental&lt;div&gt;Service&lt;/div&gt;" style="rounded=1;whiteSpace=wrap;html=1;fontStyle=0;fontSize=15;" vertex="1" parent="1">
          <mxGeometry x="607.4" y="840" width="140" height="150" as="geometry" />
        </mxCell>
        <mxCell id="uCanH5rlfd1NPs6zXA0Y-127" value="Customer&amp;nbsp;&lt;div&gt;Service&lt;/div&gt;" style="rounded=1;whiteSpace=wrap;html=1;fontStyle=0;fontSize=15;" vertex="1" parent="1">
          <mxGeometry x="607.4" y="1120" width="140" height="120" as="geometry" />
        </mxCell>
        <mxCell id="uCanH5rlfd1NPs6zXA0Y-128" value="Store Clerk" style="rounded=1;whiteSpace=wrap;html=1;fontStyle=0;fontSize=15;" vertex="1" parent="1">
          <mxGeometry x="30" y="703" width="140" height="200" as="geometry" />
        </mxCell>
        <mxCell id="uCanH5rlfd1NPs6zXA0Y-129" value="Customer" style="rounded=1;whiteSpace=wrap;html=1;fontStyle=0;fontSize=15;" vertex="1" parent="1">
          <mxGeometry x="30" y="920" width="140" height="200" as="geometry" />
        </mxCell>
        <mxCell id="uCanH5rlfd1NPs6zXA0Y-134" style="rounded=0;orthogonalLoop=1;jettySize=auto;html=1;exitX=0.998;exitY=0.07;exitDx=0;exitDy=0;exitPerimeter=0;entryX=-0.001;entryY=0.097;entryDx=0;entryDy=0;entryPerimeter=0;" edge="1" parent="1">
          <mxGeometry relative="1" as="geometry">
            <mxPoint x="170" y="730" as="sourcePoint" />
            <mxPoint x="290" y="731" as="targetPoint" />
          </mxGeometry>
        </mxCell>
        <mxCell id="uCanH5rlfd1NPs6zXA0Y-135" value="Process Payment" style="edgeLabel;html=1;align=center;verticalAlign=middle;resizable=0;points=[];fontSize=7;" vertex="1" connectable="0" parent="uCanH5rlfd1NPs6zXA0Y-134">
          <mxGeometry x="-0.2845" relative="1" as="geometry">
            <mxPoint x="15" y="-6" as="offset" />
          </mxGeometry>
        </mxCell>
        <mxCell id="uCanH5rlfd1NPs6zXA0Y-136" style="rounded=0;orthogonalLoop=1;jettySize=auto;html=1;exitX=-0.001;exitY=0.13;exitDx=0;exitDy=0;exitPerimeter=0;entryX=1;entryY=0.099;entryDx=0;entryDy=0;entryPerimeter=0;" edge="1" parent="1">
          <mxGeometry relative="1" as="geometry">
            <mxPoint x="290" y="745.8199999999999" as="sourcePoint" />
            <mxPoint x="170.39999999999998" y="745" as="targetPoint" />
          </mxGeometry>
        </mxCell>
        <mxCell id="uCanH5rlfd1NPs6zXA0Y-137" value="Payment Confirmation" style="edgeLabel;html=1;align=center;verticalAlign=middle;resizable=0;points=[];fontSize=7;" vertex="1" connectable="0" parent="uCanH5rlfd1NPs6zXA0Y-136">
          <mxGeometry x="-0.2845" relative="1" as="geometry">
            <mxPoint x="-11" y="-6" as="offset" />
          </mxGeometry>
        </mxCell>
        <mxCell id="uCanH5rlfd1NPs6zXA0Y-138" style="rounded=0;orthogonalLoop=1;jettySize=auto;html=1;exitX=-0.001;exitY=0.13;exitDx=0;exitDy=0;exitPerimeter=0;entryX=1;entryY=0.099;entryDx=0;entryDy=0;entryPerimeter=0;" edge="1" parent="1">
          <mxGeometry relative="1" as="geometry">
            <mxPoint x="289.6" y="1056.75" as="sourcePoint" />
            <mxPoint x="169.99999999999997" y="1055.93" as="targetPoint" />
          </mxGeometry>
        </mxCell>
        <mxCell id="uCanH5rlfd1NPs6zXA0Y-139" value="Payment Confirmation" style="edgeLabel;html=1;align=center;verticalAlign=middle;resizable=0;points=[];fontSize=7;" vertex="1" connectable="0" parent="uCanH5rlfd1NPs6zXA0Y-138">
          <mxGeometry x="-0.2845" relative="1" as="geometry">
            <mxPoint x="-11" y="-6" as="offset" />
          </mxGeometry>
        </mxCell>
        <mxCell id="uCanH5rlfd1NPs6zXA0Y-140" style="rounded=0;orthogonalLoop=1;jettySize=auto;html=1;exitX=0.998;exitY=0.07;exitDx=0;exitDy=0;exitPerimeter=0;entryX=-0.001;entryY=0.097;entryDx=0;entryDy=0;entryPerimeter=0;" edge="1" parent="1">
          <mxGeometry relative="1" as="geometry">
            <mxPoint x="170" y="1041.25" as="sourcePoint" />
            <mxPoint x="290" y="1042.25" as="targetPoint" />
          </mxGeometry>
        </mxCell>
        <mxCell id="uCanH5rlfd1NPs6zXA0Y-141" value="Make Payment" style="edgeLabel;html=1;align=center;verticalAlign=middle;resizable=0;points=[];fontSize=7;" vertex="1" connectable="0" parent="uCanH5rlfd1NPs6zXA0Y-140">
          <mxGeometry x="-0.2845" relative="1" as="geometry">
            <mxPoint x="20" y="-6" as="offset" />
          </mxGeometry>
        </mxCell>
        <mxCell id="uCanH5rlfd1NPs6zXA0Y-142" style="rounded=0;orthogonalLoop=1;jettySize=auto;html=1;exitX=-0.001;exitY=0.13;exitDx=0;exitDy=0;exitPerimeter=0;entryX=1;entryY=0.099;entryDx=0;entryDy=0;entryPerimeter=0;" edge="1" parent="1">
          <mxGeometry relative="1" as="geometry">
            <mxPoint x="290" y="781" as="sourcePoint" />
            <mxPoint x="170.39999999999998" y="780.1800000000001" as="targetPoint" />
          </mxGeometry>
        </mxCell>
        <mxCell id="uCanH5rlfd1NPs6zXA0Y-143" value="Card Scan Response" style="edgeLabel;html=1;align=center;verticalAlign=middle;resizable=0;points=[];fontSize=7;" vertex="1" connectable="0" parent="uCanH5rlfd1NPs6zXA0Y-142">
          <mxGeometry x="-0.2845" relative="1" as="geometry">
            <mxPoint x="-14" y="-6" as="offset" />
          </mxGeometry>
        </mxCell>
        <mxCell id="uCanH5rlfd1NPs6zXA0Y-144" style="rounded=0;orthogonalLoop=1;jettySize=auto;html=1;exitX=0.998;exitY=0.07;exitDx=0;exitDy=0;exitPerimeter=0;entryX=-0.001;entryY=0.097;entryDx=0;entryDy=0;entryPerimeter=0;" edge="1" parent="1">
          <mxGeometry relative="1" as="geometry">
            <mxPoint x="170" y="766" as="sourcePoint" />
            <mxPoint x="290" y="767" as="targetPoint" />
          </mxGeometry>
        </mxCell>
        <mxCell id="uCanH5rlfd1NPs6zXA0Y-145" value="Scan Customer Card" style="edgeLabel;html=1;align=center;verticalAlign=middle;resizable=0;points=[];fontSize=7;" vertex="1" connectable="0" parent="uCanH5rlfd1NPs6zXA0Y-144">
          <mxGeometry x="-0.2845" relative="1" as="geometry">
            <mxPoint x="15" y="-6" as="offset" />
          </mxGeometry>
        </mxCell>
        <mxCell id="uCanH5rlfd1NPs6zXA0Y-146" style="rounded=0;orthogonalLoop=1;jettySize=auto;html=1;exitX=-0.001;exitY=0.13;exitDx=0;exitDy=0;exitPerimeter=0;entryX=1;entryY=0.099;entryDx=0;entryDy=0;entryPerimeter=0;" edge="1" parent="1">
          <mxGeometry relative="1" as="geometry">
            <mxPoint x="290" y="813" as="sourcePoint" />
            <mxPoint x="170.39999999999998" y="812.1800000000001" as="targetPoint" />
          </mxGeometry>
        </mxCell>
        <mxCell id="uCanH5rlfd1NPs6zXA0Y-147" value="Add Rental Line Response" style="edgeLabel;html=1;align=center;verticalAlign=middle;resizable=0;points=[];fontSize=7;" vertex="1" connectable="0" parent="uCanH5rlfd1NPs6zXA0Y-146">
          <mxGeometry x="-0.2845" relative="1" as="geometry">
            <mxPoint x="-14" y="-6" as="offset" />
          </mxGeometry>
        </mxCell>
        <mxCell id="uCanH5rlfd1NPs6zXA0Y-148" style="rounded=0;orthogonalLoop=1;jettySize=auto;html=1;exitX=0.998;exitY=0.07;exitDx=0;exitDy=0;exitPerimeter=0;entryX=-0.001;entryY=0.097;entryDx=0;entryDy=0;entryPerimeter=0;" edge="1" parent="1">
          <mxGeometry relative="1" as="geometry">
            <mxPoint x="170" y="798" as="sourcePoint" />
            <mxPoint x="290" y="799" as="targetPoint" />
          </mxGeometry>
        </mxCell>
        <mxCell id="uCanH5rlfd1NPs6zXA0Y-149" value="Scan DVD" style="edgeLabel;html=1;align=center;verticalAlign=middle;resizable=0;points=[];fontSize=7;" vertex="1" connectable="0" parent="uCanH5rlfd1NPs6zXA0Y-148">
          <mxGeometry x="-0.2845" relative="1" as="geometry">
            <mxPoint x="15" y="-6" as="offset" />
          </mxGeometry>
        </mxCell>
        <mxCell id="uCanH5rlfd1NPs6zXA0Y-150" style="rounded=0;orthogonalLoop=1;jettySize=auto;html=1;exitX=0.998;exitY=0.07;exitDx=0;exitDy=0;exitPerimeter=0;" edge="1" parent="1">
          <mxGeometry relative="1" as="geometry">
            <mxPoint x="490" y="1140" as="sourcePoint" />
            <mxPoint x="607" y="1140" as="targetPoint" />
          </mxGeometry>
        </mxCell>
        <mxCell id="uCanH5rlfd1NPs6zXA0Y-151" value="Store Bank Card" style="edgeLabel;html=1;align=center;verticalAlign=middle;resizable=0;points=[];fontSize=7;" vertex="1" connectable="0" parent="uCanH5rlfd1NPs6zXA0Y-150">
          <mxGeometry x="-0.2845" relative="1" as="geometry">
            <mxPoint x="15" y="-6" as="offset" />
          </mxGeometry>
        </mxCell>
        <mxCell id="uCanH5rlfd1NPs6zXA0Y-152" style="rounded=0;orthogonalLoop=1;jettySize=auto;html=1;entryX=1;entryY=0.099;entryDx=0;entryDy=0;entryPerimeter=0;" edge="1" parent="1">
          <mxGeometry relative="1" as="geometry">
            <mxPoint x="607" y="1154" as="sourcePoint" />
            <mxPoint x="490.4" y="1154.18" as="targetPoint" />
          </mxGeometry>
        </mxCell>
        <mxCell id="uCanH5rlfd1NPs6zXA0Y-153" value="Bank Card Response" style="edgeLabel;html=1;align=center;verticalAlign=middle;resizable=0;points=[];fontSize=7;" vertex="1" connectable="0" parent="uCanH5rlfd1NPs6zXA0Y-152">
          <mxGeometry x="-0.2845" relative="1" as="geometry">
            <mxPoint x="-14" y="-6" as="offset" />
          </mxGeometry>
        </mxCell>
        <mxCell id="uCanH5rlfd1NPs6zXA0Y-158" style="rounded=0;orthogonalLoop=1;jettySize=auto;html=1;exitX=-0.001;exitY=0.13;exitDx=0;exitDy=0;exitPerimeter=0;entryX=1;entryY=0.099;entryDx=0;entryDy=0;entryPerimeter=0;" edge="1" parent="1">
          <mxGeometry relative="1" as="geometry">
            <mxPoint x="289.6" y="988.75" as="sourcePoint" />
            <mxPoint x="169.99999999999997" y="987.9300000000001" as="targetPoint" />
          </mxGeometry>
        </mxCell>
        <mxCell id="uCanH5rlfd1NPs6zXA0Y-159" value="Return DVD Response" style="edgeLabel;html=1;align=center;verticalAlign=middle;resizable=0;points=[];fontSize=7;" vertex="1" connectable="0" parent="uCanH5rlfd1NPs6zXA0Y-158">
          <mxGeometry x="-0.2845" relative="1" as="geometry">
            <mxPoint x="-11" y="-6" as="offset" />
          </mxGeometry>
        </mxCell>
        <mxCell id="uCanH5rlfd1NPs6zXA0Y-160" style="rounded=0;orthogonalLoop=1;jettySize=auto;html=1;exitX=0.998;exitY=0.07;exitDx=0;exitDy=0;exitPerimeter=0;entryX=-0.001;entryY=0.097;entryDx=0;entryDy=0;entryPerimeter=0;" edge="1" parent="1">
          <mxGeometry relative="1" as="geometry">
            <mxPoint x="170" y="973.25" as="sourcePoint" />
            <mxPoint x="290" y="974.25" as="targetPoint" />
          </mxGeometry>
        </mxCell>
        <mxCell id="uCanH5rlfd1NPs6zXA0Y-161" value="Return DVDs" style="edgeLabel;html=1;align=center;verticalAlign=middle;resizable=0;points=[];fontSize=7;" vertex="1" connectable="0" parent="uCanH5rlfd1NPs6zXA0Y-160">
          <mxGeometry x="-0.2845" relative="1" as="geometry">
            <mxPoint x="15" y="-6" as="offset" />
          </mxGeometry>
        </mxCell>
        <mxCell id="uCanH5rlfd1NPs6zXA0Y-162" style="rounded=0;orthogonalLoop=1;jettySize=auto;html=1;exitX=-0.001;exitY=0.13;exitDx=0;exitDy=0;exitPerimeter=0;entryX=1;entryY=0.099;entryDx=0;entryDy=0;entryPerimeter=0;" edge="1" parent="1">
          <mxGeometry relative="1" as="geometry">
            <mxPoint x="289.6" y="1020.75" as="sourcePoint" />
            <mxPoint x="169.99999999999997" y="1019.9300000000001" as="targetPoint" />
          </mxGeometry>
        </mxCell>
        <mxCell id="uCanH5rlfd1NPs6zXA0Y-163" value="Reservation" style="edgeLabel;html=1;align=center;verticalAlign=middle;resizable=0;points=[];fontSize=7;" vertex="1" connectable="0" parent="uCanH5rlfd1NPs6zXA0Y-162">
          <mxGeometry x="-0.2845" relative="1" as="geometry">
            <mxPoint x="-11" y="-6" as="offset" />
          </mxGeometry>
        </mxCell>
        <mxCell id="uCanH5rlfd1NPs6zXA0Y-164" style="rounded=0;orthogonalLoop=1;jettySize=auto;html=1;exitX=0.998;exitY=0.07;exitDx=0;exitDy=0;exitPerimeter=0;entryX=-0.001;entryY=0.097;entryDx=0;entryDy=0;entryPerimeter=0;" edge="1" parent="1">
          <mxGeometry relative="1" as="geometry">
            <mxPoint x="170" y="1005.25" as="sourcePoint" />
            <mxPoint x="290" y="1006.25" as="targetPoint" />
          </mxGeometry>
        </mxCell>
        <mxCell id="uCanH5rlfd1NPs6zXA0Y-165" value="Reserve DVDs" style="edgeLabel;html=1;align=center;verticalAlign=middle;resizable=0;points=[];fontSize=7;" vertex="1" connectable="0" parent="uCanH5rlfd1NPs6zXA0Y-164">
          <mxGeometry x="-0.2845" relative="1" as="geometry">
            <mxPoint x="15" y="-6" as="offset" />
          </mxGeometry>
        </mxCell>
        <mxCell id="uCanH5rlfd1NPs6zXA0Y-166" value="Store Manager" style="rounded=1;whiteSpace=wrap;html=1;fontStyle=0;fontSize=15;" vertex="1" parent="1">
          <mxGeometry x="30" y="1151" width="140" height="200" as="geometry" />
        </mxCell>
        <mxCell id="uCanH5rlfd1NPs6zXA0Y-167" style="rounded=0;orthogonalLoop=1;jettySize=auto;html=1;exitX=-0.001;exitY=0.198;exitDx=0;exitDy=0;exitPerimeter=0;entryX=1.003;entryY=0.206;entryDx=0;entryDy=0;entryPerimeter=0;" edge="1" parent="1" target="uCanH5rlfd1NPs6zXA0Y-166">
          <mxGeometry relative="1" as="geometry">
            <mxPoint x="289.72000000000014" y="1192.5900000000001" as="sourcePoint" />
            <mxPoint x="172.86" y="1191.99" as="targetPoint" />
          </mxGeometry>
        </mxCell>
        <mxCell id="uCanH5rlfd1NPs6zXA0Y-168" value="Fill DVD Order Form" style="edgeLabel;html=1;align=center;verticalAlign=middle;resizable=0;points=[];fontSize=7;" vertex="1" connectable="0" parent="uCanH5rlfd1NPs6zXA0Y-167">
          <mxGeometry x="-0.2845" relative="1" as="geometry">
            <mxPoint x="-11" y="-6" as="offset" />
          </mxGeometry>
        </mxCell>
        <mxCell id="uCanH5rlfd1NPs6zXA0Y-169" style="rounded=0;orthogonalLoop=1;jettySize=auto;html=1;exitX=1.002;exitY=0.265;exitDx=0;exitDy=0;exitPerimeter=0;entryX=0.001;entryY=0.257;entryDx=0;entryDy=0;entryPerimeter=0;" edge="1" parent="1" source="uCanH5rlfd1NPs6zXA0Y-166">
          <mxGeometry relative="1" as="geometry">
            <mxPoint x="172.86" y="1203.59" as="sourcePoint" />
            <mxPoint x="289.9999999999999" y="1204.39" as="targetPoint" />
          </mxGeometry>
        </mxCell>
        <mxCell id="uCanH5rlfd1NPs6zXA0Y-170" value="Order Form Response" style="edgeLabel;html=1;align=center;verticalAlign=middle;resizable=0;points=[];fontSize=7;" vertex="1" connectable="0" parent="uCanH5rlfd1NPs6zXA0Y-169">
          <mxGeometry x="-0.2845" relative="1" as="geometry">
            <mxPoint x="15" y="-6" as="offset" />
          </mxGeometry>
        </mxCell>
        <mxCell id="uCanH5rlfd1NPs6zXA0Y-171" style="rounded=0;orthogonalLoop=1;jettySize=auto;html=1;exitX=-0.001;exitY=0.198;exitDx=0;exitDy=0;exitPerimeter=0;entryX=0.998;entryY=0.362;entryDx=0;entryDy=0;entryPerimeter=0;" edge="1" parent="1" target="uCanH5rlfd1NPs6zXA0Y-166">
          <mxGeometry relative="1" as="geometry">
            <mxPoint x="289.86" y="1223.99" as="sourcePoint" />
            <mxPoint x="172.86" y="1222.99" as="targetPoint" />
          </mxGeometry>
        </mxCell>
        <mxCell id="uCanH5rlfd1NPs6zXA0Y-172" value="Get Supplier List" style="edgeLabel;html=1;align=center;verticalAlign=middle;resizable=0;points=[];fontSize=7;" vertex="1" connectable="0" parent="uCanH5rlfd1NPs6zXA0Y-171">
          <mxGeometry x="-0.2845" relative="1" as="geometry">
            <mxPoint x="-11" y="-6" as="offset" />
          </mxGeometry>
        </mxCell>
        <mxCell id="uCanH5rlfd1NPs6zXA0Y-173" style="rounded=0;orthogonalLoop=1;jettySize=auto;html=1;exitX=1.002;exitY=0.419;exitDx=0;exitDy=0;exitPerimeter=0;entryX=0.001;entryY=0.257;entryDx=0;entryDy=0;entryPerimeter=0;" edge="1" parent="1" source="uCanH5rlfd1NPs6zXA0Y-166">
          <mxGeometry relative="1" as="geometry">
            <mxPoint x="172.86" y="1234.59" as="sourcePoint" />
            <mxPoint x="289.86" y="1234.99" as="targetPoint" />
          </mxGeometry>
        </mxCell>
        <mxCell id="uCanH5rlfd1NPs6zXA0Y-174" value="Supplier List Response" style="edgeLabel;html=1;align=center;verticalAlign=middle;resizable=0;points=[];fontSize=7;" vertex="1" connectable="0" parent="uCanH5rlfd1NPs6zXA0Y-173">
          <mxGeometry x="-0.2845" relative="1" as="geometry">
            <mxPoint x="15" y="-6" as="offset" />
          </mxGeometry>
        </mxCell>
        <mxCell id="uCanH5rlfd1NPs6zXA0Y-175" style="rounded=0;orthogonalLoop=1;jettySize=auto;html=1;exitX=-0.001;exitY=0.198;exitDx=0;exitDy=0;exitPerimeter=0;entryX=1.003;entryY=0.51;entryDx=0;entryDy=0;entryPerimeter=0;" edge="1" parent="1" target="uCanH5rlfd1NPs6zXA0Y-166">
          <mxGeometry relative="1" as="geometry">
            <mxPoint x="289.86" y="1253.99" as="sourcePoint" />
            <mxPoint x="172.86" y="1252.99" as="targetPoint" />
          </mxGeometry>
        </mxCell>
        <mxCell id="uCanH5rlfd1NPs6zXA0Y-176" value="Submit Order Form" style="edgeLabel;html=1;align=center;verticalAlign=middle;resizable=0;points=[];fontSize=7;" vertex="1" connectable="0" parent="uCanH5rlfd1NPs6zXA0Y-175">
          <mxGeometry x="-0.2845" relative="1" as="geometry">
            <mxPoint x="-11" y="-6" as="offset" />
          </mxGeometry>
        </mxCell>
        <mxCell id="uCanH5rlfd1NPs6zXA0Y-177" style="rounded=0;orthogonalLoop=1;jettySize=auto;html=1;exitX=1.005;exitY=0.57;exitDx=0;exitDy=0;exitPerimeter=0;entryX=0.001;entryY=0.257;entryDx=0;entryDy=0;entryPerimeter=0;" edge="1" parent="1" source="uCanH5rlfd1NPs6zXA0Y-166">
          <mxGeometry relative="1" as="geometry">
            <mxPoint x="172.86" y="1264.59" as="sourcePoint" />
            <mxPoint x="289.86" y="1264.99" as="targetPoint" />
          </mxGeometry>
        </mxCell>
        <mxCell id="uCanH5rlfd1NPs6zXA0Y-178" value="Order Form Response" style="edgeLabel;html=1;align=center;verticalAlign=middle;resizable=0;points=[];fontSize=7;" vertex="1" connectable="0" parent="uCanH5rlfd1NPs6zXA0Y-177">
          <mxGeometry x="-0.2845" relative="1" as="geometry">
            <mxPoint x="15" y="-6" as="offset" />
          </mxGeometry>
        </mxCell>
        <mxCell id="uCanH5rlfd1NPs6zXA0Y-179" style="rounded=0;orthogonalLoop=1;jettySize=auto;html=1;exitX=-0.001;exitY=0.653;exitDx=0;exitDy=0;exitPerimeter=0;entryX=1.003;entryY=0.662;entryDx=0;entryDy=0;entryPerimeter=0;" edge="1" parent="1" target="uCanH5rlfd1NPs6zXA0Y-166">
          <mxGeometry relative="1" as="geometry">
            <mxPoint x="289.72000000000014" y="1283.59" as="sourcePoint" />
            <mxPoint x="172.86" y="1282.99" as="targetPoint" />
          </mxGeometry>
        </mxCell>
        <mxCell id="uCanH5rlfd1NPs6zXA0Y-180" value="Get Order Result" style="edgeLabel;html=1;align=center;verticalAlign=middle;resizable=0;points=[];fontSize=7;" vertex="1" connectable="0" parent="uCanH5rlfd1NPs6zXA0Y-179">
          <mxGeometry x="-0.2845" relative="1" as="geometry">
            <mxPoint x="-21" y="-6" as="offset" />
          </mxGeometry>
        </mxCell>
        <mxCell id="uCanH5rlfd1NPs6zXA0Y-181" style="rounded=0;orthogonalLoop=1;jettySize=auto;html=1;exitX=0.998;exitY=0.72;exitDx=0;exitDy=0;exitPerimeter=0;entryX=0.001;entryY=0.257;entryDx=0;entryDy=0;entryPerimeter=0;" edge="1" parent="1" source="uCanH5rlfd1NPs6zXA0Y-166">
          <mxGeometry relative="1" as="geometry">
            <mxPoint x="172.86" y="1294.59" as="sourcePoint" />
            <mxPoint x="289.86" y="1294.99" as="targetPoint" />
          </mxGeometry>
        </mxCell>
        <mxCell id="uCanH5rlfd1NPs6zXA0Y-182" value="Order Result Response" style="edgeLabel;html=1;align=center;verticalAlign=middle;resizable=0;points=[];fontSize=7;" vertex="1" connectable="0" parent="uCanH5rlfd1NPs6zXA0Y-181">
          <mxGeometry x="-0.2845" relative="1" as="geometry">
            <mxPoint x="15" y="-6" as="offset" />
          </mxGeometry>
        </mxCell>
        <mxCell id="uCanH5rlfd1NPs6zXA0Y-183" style="rounded=0;orthogonalLoop=1;jettySize=auto;html=1;entryX=-0.001;entryY=0.6;entryDx=0;entryDy=0;entryPerimeter=0;exitX=1;exitY=0.286;exitDx=0;exitDy=0;exitPerimeter=0;" edge="1" parent="1">
          <mxGeometry relative="1" as="geometry">
            <mxPoint x="489.28" y="893.12" as="sourcePoint" />
            <mxPoint x="606.1400000000001" y="893" as="targetPoint" />
          </mxGeometry>
        </mxCell>
        <mxCell id="uCanH5rlfd1NPs6zXA0Y-184" value="Validate DVD Barcode" style="edgeLabel;html=1;align=center;verticalAlign=middle;resizable=0;points=[];fontSize=7;" vertex="1" connectable="0" parent="uCanH5rlfd1NPs6zXA0Y-183">
          <mxGeometry x="-0.2845" relative="1" as="geometry">
            <mxPoint x="15" y="-6" as="offset" />
          </mxGeometry>
        </mxCell>
        <mxCell id="uCanH5rlfd1NPs6zXA0Y-185" style="rounded=0;orthogonalLoop=1;jettySize=auto;html=1;exitX=-0.002;exitY=0.666;exitDx=0;exitDy=0;exitPerimeter=0;entryX=1.003;entryY=0.317;entryDx=0;entryDy=0;entryPerimeter=0;" edge="1" parent="1">
          <mxGeometry relative="1" as="geometry">
            <mxPoint x="606.4" y="906.06" as="sourcePoint" />
            <mxPoint x="490.27999999999986" y="906" as="targetPoint" />
          </mxGeometry>
        </mxCell>
        <mxCell id="uCanH5rlfd1NPs6zXA0Y-186" value="DVD Validation" style="edgeLabel;html=1;align=center;verticalAlign=middle;resizable=0;points=[];fontSize=7;" vertex="1" connectable="0" parent="uCanH5rlfd1NPs6zXA0Y-185">
          <mxGeometry x="-0.2845" relative="1" as="geometry">
            <mxPoint x="-11" y="-6" as="offset" />
          </mxGeometry>
        </mxCell>
        <mxCell id="uCanH5rlfd1NPs6zXA0Y-187" style="rounded=0;orthogonalLoop=1;jettySize=auto;html=1;entryX=-0.001;entryY=0.6;entryDx=0;entryDy=0;entryPerimeter=0;exitX=1;exitY=0.286;exitDx=0;exitDy=0;exitPerimeter=0;" edge="1" parent="1">
          <mxGeometry relative="1" as="geometry">
            <mxPoint x="490.28" y="927.1199999999999" as="sourcePoint" />
            <mxPoint x="607.1400000000001" y="927" as="targetPoint" />
          </mxGeometry>
        </mxCell>
        <mxCell id="uCanH5rlfd1NPs6zXA0Y-188" value="Update DVD Details" style="edgeLabel;html=1;align=center;verticalAlign=middle;resizable=0;points=[];fontSize=7;" vertex="1" connectable="0" parent="uCanH5rlfd1NPs6zXA0Y-187">
          <mxGeometry x="-0.2845" relative="1" as="geometry">
            <mxPoint x="15" y="-6" as="offset" />
          </mxGeometry>
        </mxCell>
        <mxCell id="uCanH5rlfd1NPs6zXA0Y-189" style="rounded=0;orthogonalLoop=1;jettySize=auto;html=1;exitX=-0.002;exitY=0.666;exitDx=0;exitDy=0;exitPerimeter=0;entryX=1.003;entryY=0.317;entryDx=0;entryDy=0;entryPerimeter=0;" edge="1" parent="1">
          <mxGeometry relative="1" as="geometry">
            <mxPoint x="607.4" y="940.06" as="sourcePoint" />
            <mxPoint x="491.27999999999986" y="940" as="targetPoint" />
          </mxGeometry>
        </mxCell>
        <mxCell id="uCanH5rlfd1NPs6zXA0Y-190" value="DVD Details" style="edgeLabel;html=1;align=center;verticalAlign=middle;resizable=0;points=[];fontSize=7;" vertex="1" connectable="0" parent="uCanH5rlfd1NPs6zXA0Y-189">
          <mxGeometry x="-0.2845" relative="1" as="geometry">
            <mxPoint x="-11" y="-6" as="offset" />
          </mxGeometry>
        </mxCell>
        <mxCell id="uCanH5rlfd1NPs6zXA0Y-191" style="rounded=0;orthogonalLoop=1;jettySize=auto;html=1;entryX=-0.001;entryY=0.6;entryDx=0;entryDy=0;entryPerimeter=0;exitX=1;exitY=0.286;exitDx=0;exitDy=0;exitPerimeter=0;" edge="1" parent="1">
          <mxGeometry relative="1" as="geometry">
            <mxPoint x="490.28" y="959.1199999999999" as="sourcePoint" />
            <mxPoint x="607.1400000000001" y="959" as="targetPoint" />
          </mxGeometry>
        </mxCell>
        <mxCell id="uCanH5rlfd1NPs6zXA0Y-192" value="Rent DVD" style="edgeLabel;html=1;align=center;verticalAlign=middle;resizable=0;points=[];fontSize=7;" vertex="1" connectable="0" parent="uCanH5rlfd1NPs6zXA0Y-191">
          <mxGeometry x="-0.2845" relative="1" as="geometry">
            <mxPoint x="15" y="-6" as="offset" />
          </mxGeometry>
        </mxCell>
        <mxCell id="uCanH5rlfd1NPs6zXA0Y-193" style="rounded=0;orthogonalLoop=1;jettySize=auto;html=1;exitX=-0.002;exitY=0.666;exitDx=0;exitDy=0;exitPerimeter=0;entryX=1.003;entryY=0.317;entryDx=0;entryDy=0;entryPerimeter=0;" edge="1" parent="1">
          <mxGeometry relative="1" as="geometry">
            <mxPoint x="607.4" y="972.06" as="sourcePoint" />
            <mxPoint x="491.27999999999986" y="972" as="targetPoint" />
          </mxGeometry>
        </mxCell>
        <mxCell id="uCanH5rlfd1NPs6zXA0Y-194" value="Rental Response" style="edgeLabel;html=1;align=center;verticalAlign=middle;resizable=0;points=[];fontSize=7;" vertex="1" connectable="0" parent="uCanH5rlfd1NPs6zXA0Y-193">
          <mxGeometry x="-0.2845" relative="1" as="geometry">
            <mxPoint x="-11" y="-6" as="offset" />
          </mxGeometry>
        </mxCell>
        <mxCell id="uCanH5rlfd1NPs6zXA0Y-195" style="rounded=0;orthogonalLoop=1;jettySize=auto;html=1;exitX=-0.002;exitY=0.666;exitDx=0;exitDy=0;exitPerimeter=0;entryX=1.003;entryY=0.317;entryDx=0;entryDy=0;entryPerimeter=0;" edge="1" parent="1">
          <mxGeometry relative="1" as="geometry">
            <mxPoint x="607.4" y="873.06" as="sourcePoint" />
            <mxPoint x="491.27999999999986" y="873" as="targetPoint" />
          </mxGeometry>
        </mxCell>
        <mxCell id="uCanH5rlfd1NPs6zXA0Y-196" value="Store DVD" style="edgeLabel;html=1;align=center;verticalAlign=middle;resizable=0;points=[];fontSize=7;" vertex="1" connectable="0" parent="uCanH5rlfd1NPs6zXA0Y-195">
          <mxGeometry x="-0.2845" relative="1" as="geometry">
            <mxPoint x="-11" y="-6" as="offset" />
          </mxGeometry>
        </mxCell>
        <mxCell id="uCanH5rlfd1NPs6zXA0Y-197" style="rounded=0;orthogonalLoop=1;jettySize=auto;html=1;entryX=-0.001;entryY=0.6;entryDx=0;entryDy=0;entryPerimeter=0;exitX=1;exitY=0.286;exitDx=0;exitDy=0;exitPerimeter=0;" edge="1" parent="1">
          <mxGeometry relative="1" as="geometry">
            <mxPoint x="490.28" y="860.12" as="sourcePoint" />
            <mxPoint x="607.1400000000001" y="860" as="targetPoint" />
          </mxGeometry>
        </mxCell>
        <mxCell id="uCanH5rlfd1NPs6zXA0Y-198" value="Scan New DVD" style="edgeLabel;html=1;align=center;verticalAlign=middle;resizable=0;points=[];fontSize=7;" vertex="1" connectable="0" parent="uCanH5rlfd1NPs6zXA0Y-197">
          <mxGeometry x="-0.2845" relative="1" as="geometry">
            <mxPoint x="15" y="-6" as="offset" />
          </mxGeometry>
        </mxCell>
        <mxCell id="uCanH5rlfd1NPs6zXA0Y-199" style="rounded=0;orthogonalLoop=1;jettySize=auto;html=1;entryX=1;entryY=0.099;entryDx=0;entryDy=0;entryPerimeter=0;" edge="1" parent="1">
          <mxGeometry relative="1" as="geometry">
            <mxPoint x="607" y="1184" as="sourcePoint" />
            <mxPoint x="490.4" y="1184.18" as="targetPoint" />
          </mxGeometry>
        </mxCell>
        <mxCell id="uCanH5rlfd1NPs6zXA0Y-200" value="Customer Card" style="edgeLabel;html=1;align=center;verticalAlign=middle;resizable=0;points=[];fontSize=7;" vertex="1" connectable="0" parent="uCanH5rlfd1NPs6zXA0Y-199">
          <mxGeometry x="-0.2845" relative="1" as="geometry">
            <mxPoint x="-14" y="-6" as="offset" />
          </mxGeometry>
        </mxCell>
        <mxCell id="uCanH5rlfd1NPs6zXA0Y-201" style="rounded=0;orthogonalLoop=1;jettySize=auto;html=1;exitX=0.998;exitY=0.07;exitDx=0;exitDy=0;exitPerimeter=0;" edge="1" parent="1">
          <mxGeometry relative="1" as="geometry">
            <mxPoint x="490" y="1170" as="sourcePoint" />
            <mxPoint x="607" y="1170" as="targetPoint" />
          </mxGeometry>
        </mxCell>
        <mxCell id="uCanH5rlfd1NPs6zXA0Y-202" value="Issue Customer Card" style="edgeLabel;html=1;align=center;verticalAlign=middle;resizable=0;points=[];fontSize=7;" vertex="1" connectable="0" parent="uCanH5rlfd1NPs6zXA0Y-201">
          <mxGeometry x="-0.2845" relative="1" as="geometry">
            <mxPoint x="15" y="-6" as="offset" />
          </mxGeometry>
        </mxCell>
        <mxCell id="uCanH5rlfd1NPs6zXA0Y-203" style="rounded=0;orthogonalLoop=1;jettySize=auto;html=1;entryX=1;entryY=0.099;entryDx=0;entryDy=0;entryPerimeter=0;" edge="1" parent="1">
          <mxGeometry relative="1" as="geometry">
            <mxPoint x="607" y="1214" as="sourcePoint" />
            <mxPoint x="490.4" y="1214.18" as="targetPoint" />
          </mxGeometry>
        </mxCell>
        <mxCell id="uCanH5rlfd1NPs6zXA0Y-204" value="Notification" style="edgeLabel;html=1;align=center;verticalAlign=middle;resizable=0;points=[];fontSize=7;" vertex="1" connectable="0" parent="uCanH5rlfd1NPs6zXA0Y-203">
          <mxGeometry x="-0.2845" relative="1" as="geometry">
            <mxPoint x="-14" y="-6" as="offset" />
          </mxGeometry>
        </mxCell>
        <mxCell id="uCanH5rlfd1NPs6zXA0Y-205" style="rounded=0;orthogonalLoop=1;jettySize=auto;html=1;exitX=0.998;exitY=0.07;exitDx=0;exitDy=0;exitPerimeter=0;" edge="1" parent="1">
          <mxGeometry relative="1" as="geometry">
            <mxPoint x="490" y="1200" as="sourcePoint" />
            <mxPoint x="607" y="1200" as="targetPoint" />
          </mxGeometry>
        </mxCell>
        <mxCell id="uCanH5rlfd1NPs6zXA0Y-206" value="Notify Customer" style="edgeLabel;html=1;align=center;verticalAlign=middle;resizable=0;points=[];fontSize=7;" vertex="1" connectable="0" parent="uCanH5rlfd1NPs6zXA0Y-205">
          <mxGeometry x="-0.2845" relative="1" as="geometry">
            <mxPoint x="15" y="-6" as="offset" />
          </mxGeometry>
        </mxCell>
        <mxCell id="uCanH5rlfd1NPs6zXA0Y-207" value="Inventory&amp;nbsp;&lt;div&gt;Service&lt;/div&gt;" style="rounded=1;whiteSpace=wrap;html=1;fontStyle=0;fontSize=15;" vertex="1" parent="1">
          <mxGeometry x="607.4" y="1000" width="140" height="110" as="geometry" />
        </mxCell>
        <mxCell id="uCanH5rlfd1NPs6zXA0Y-208" style="rounded=0;orthogonalLoop=1;jettySize=auto;html=1;exitX=-0.002;exitY=0.666;exitDx=0;exitDy=0;exitPerimeter=0;entryX=1.003;entryY=0.317;entryDx=0;entryDy=0;entryPerimeter=0;" edge="1" parent="1">
          <mxGeometry relative="1" as="geometry">
            <mxPoint x="607.12" y="1033.06" as="sourcePoint" />
            <mxPoint x="490.9999999999999" y="1033" as="targetPoint" />
          </mxGeometry>
        </mxCell>
        <mxCell id="uCanH5rlfd1NPs6zXA0Y-209" value="DVD Details" style="edgeLabel;html=1;align=center;verticalAlign=middle;resizable=0;points=[];fontSize=7;" vertex="1" connectable="0" parent="uCanH5rlfd1NPs6zXA0Y-208">
          <mxGeometry x="-0.2845" relative="1" as="geometry">
            <mxPoint x="-11" y="-6" as="offset" />
          </mxGeometry>
        </mxCell>
        <mxCell id="uCanH5rlfd1NPs6zXA0Y-210" style="rounded=0;orthogonalLoop=1;jettySize=auto;html=1;entryX=-0.001;entryY=0.6;entryDx=0;entryDy=0;entryPerimeter=0;exitX=1;exitY=0.286;exitDx=0;exitDy=0;exitPerimeter=0;" edge="1" parent="1">
          <mxGeometry relative="1" as="geometry">
            <mxPoint x="490" y="1020.1199999999999" as="sourcePoint" />
            <mxPoint x="606.8600000000001" y="1020" as="targetPoint" />
          </mxGeometry>
        </mxCell>
        <mxCell id="uCanH5rlfd1NPs6zXA0Y-211" value="Store DVD" style="edgeLabel;html=1;align=center;verticalAlign=middle;resizable=0;points=[];fontSize=7;" vertex="1" connectable="0" parent="uCanH5rlfd1NPs6zXA0Y-210">
          <mxGeometry x="-0.2845" relative="1" as="geometry">
            <mxPoint x="15" y="-6" as="offset" />
          </mxGeometry>
        </mxCell>
        <mxCell id="uCanH5rlfd1NPs6zXA0Y-212" style="rounded=0;orthogonalLoop=1;jettySize=auto;html=1;exitX=-0.002;exitY=0.666;exitDx=0;exitDy=0;exitPerimeter=0;entryX=1.003;entryY=0.317;entryDx=0;entryDy=0;entryPerimeter=0;" edge="1" parent="1">
          <mxGeometry relative="1" as="geometry">
            <mxPoint x="607.4" y="1063.06" as="sourcePoint" />
            <mxPoint x="491.27999999999986" y="1063" as="targetPoint" />
          </mxGeometry>
        </mxCell>
        <mxCell id="uCanH5rlfd1NPs6zXA0Y-213" value="Update DVD Confirmation" style="edgeLabel;html=1;align=center;verticalAlign=middle;resizable=0;points=[];fontSize=7;" vertex="1" connectable="0" parent="uCanH5rlfd1NPs6zXA0Y-212">
          <mxGeometry x="-0.2845" relative="1" as="geometry">
            <mxPoint x="-11" y="-6" as="offset" />
          </mxGeometry>
        </mxCell>
        <mxCell id="uCanH5rlfd1NPs6zXA0Y-214" style="rounded=0;orthogonalLoop=1;jettySize=auto;html=1;entryX=-0.001;entryY=0.6;entryDx=0;entryDy=0;entryPerimeter=0;exitX=1;exitY=0.286;exitDx=0;exitDy=0;exitPerimeter=0;" edge="1" parent="1">
          <mxGeometry relative="1" as="geometry">
            <mxPoint x="490.28" y="1050.12" as="sourcePoint" />
            <mxPoint x="607.1400000000001" y="1050" as="targetPoint" />
          </mxGeometry>
        </mxCell>
        <mxCell id="uCanH5rlfd1NPs6zXA0Y-215" value="Update DVD" style="edgeLabel;html=1;align=center;verticalAlign=middle;resizable=0;points=[];fontSize=7;" vertex="1" connectable="0" parent="uCanH5rlfd1NPs6zXA0Y-214">
          <mxGeometry x="-0.2845" relative="1" as="geometry">
            <mxPoint x="15" y="-6" as="offset" />
          </mxGeometry>
        </mxCell>
        <mxCell id="uCanH5rlfd1NPs6zXA0Y-216" style="rounded=0;orthogonalLoop=1;jettySize=auto;html=1;exitX=-0.002;exitY=0.666;exitDx=0;exitDy=0;exitPerimeter=0;entryX=1.003;entryY=0.317;entryDx=0;entryDy=0;entryPerimeter=0;" edge="1" parent="1">
          <mxGeometry relative="1" as="geometry">
            <mxPoint x="607.4" y="1093.06" as="sourcePoint" />
            <mxPoint x="491.27999999999986" y="1093" as="targetPoint" />
          </mxGeometry>
        </mxCell>
        <mxCell id="uCanH5rlfd1NPs6zXA0Y-217" value="DVD Barcode Verification" style="edgeLabel;html=1;align=center;verticalAlign=middle;resizable=0;points=[];fontSize=7;" vertex="1" connectable="0" parent="uCanH5rlfd1NPs6zXA0Y-216">
          <mxGeometry x="-0.2845" relative="1" as="geometry">
            <mxPoint x="-11" y="-6" as="offset" />
          </mxGeometry>
        </mxCell>
        <mxCell id="uCanH5rlfd1NPs6zXA0Y-218" style="rounded=0;orthogonalLoop=1;jettySize=auto;html=1;entryX=-0.001;entryY=0.6;entryDx=0;entryDy=0;entryPerimeter=0;exitX=1;exitY=0.286;exitDx=0;exitDy=0;exitPerimeter=0;" edge="1" parent="1">
          <mxGeometry relative="1" as="geometry">
            <mxPoint x="490.28" y="1080.12" as="sourcePoint" />
            <mxPoint x="607.1400000000001" y="1080" as="targetPoint" />
          </mxGeometry>
        </mxCell>
        <mxCell id="uCanH5rlfd1NPs6zXA0Y-219" value="Scan DVD Barcode" style="edgeLabel;html=1;align=center;verticalAlign=middle;resizable=0;points=[];fontSize=7;" vertex="1" connectable="0" parent="uCanH5rlfd1NPs6zXA0Y-218">
          <mxGeometry x="-0.2845" relative="1" as="geometry">
            <mxPoint x="15" y="-6" as="offset" />
          </mxGeometry>
        </mxCell>
        <mxCell id="uCanH5rlfd1NPs6zXA0Y-220" value="Reservation&amp;nbsp;&lt;div&gt;Service&lt;/div&gt;" style="rounded=1;whiteSpace=wrap;html=1;fontStyle=0;fontSize=15;" vertex="1" parent="1">
          <mxGeometry x="607.4" y="1250" width="140" height="120" as="geometry" />
        </mxCell>
        <mxCell id="uCanH5rlfd1NPs6zXA0Y-221" style="rounded=0;orthogonalLoop=1;jettySize=auto;html=1;entryX=1;entryY=0.099;entryDx=0;entryDy=0;entryPerimeter=0;" edge="1" parent="1">
          <mxGeometry relative="1" as="geometry">
            <mxPoint x="607.4" y="1281" as="sourcePoint" />
            <mxPoint x="490.79999999999995" y="1281.18" as="targetPoint" />
          </mxGeometry>
        </mxCell>
        <mxCell id="uCanH5rlfd1NPs6zXA0Y-222" value="Add DVD Reservation Confirmation" style="edgeLabel;html=1;align=center;verticalAlign=middle;resizable=0;points=[];fontSize=7;labelBackgroundColor=none;" vertex="1" connectable="0" parent="uCanH5rlfd1NPs6zXA0Y-221">
          <mxGeometry x="-0.2845" relative="1" as="geometry">
            <mxPoint x="-15" y="-6" as="offset" />
          </mxGeometry>
        </mxCell>
        <mxCell id="uCanH5rlfd1NPs6zXA0Y-223" style="rounded=0;orthogonalLoop=1;jettySize=auto;html=1;exitX=0.998;exitY=0.07;exitDx=0;exitDy=0;exitPerimeter=0;" edge="1" parent="1">
          <mxGeometry relative="1" as="geometry">
            <mxPoint x="490.4" y="1267" as="sourcePoint" />
            <mxPoint x="607.4" y="1267" as="targetPoint" />
          </mxGeometry>
        </mxCell>
        <mxCell id="uCanH5rlfd1NPs6zXA0Y-224" value="Add DVD Reservation" style="edgeLabel;html=1;align=center;verticalAlign=middle;resizable=0;points=[];fontSize=7;" vertex="1" connectable="0" parent="uCanH5rlfd1NPs6zXA0Y-223">
          <mxGeometry x="-0.2845" relative="1" as="geometry">
            <mxPoint x="15" y="-6" as="offset" />
          </mxGeometry>
        </mxCell>
        <mxCell id="uCanH5rlfd1NPs6zXA0Y-225" style="rounded=0;orthogonalLoop=1;jettySize=auto;html=1;entryX=1;entryY=0.099;entryDx=0;entryDy=0;entryPerimeter=0;" edge="1" parent="1">
          <mxGeometry relative="1" as="geometry">
            <mxPoint x="607.4" y="1313.83" as="sourcePoint" />
            <mxPoint x="490.79999999999995" y="1314.01" as="targetPoint" />
          </mxGeometry>
        </mxCell>
        <mxCell id="uCanH5rlfd1NPs6zXA0Y-226" value="Reservation List" style="edgeLabel;html=1;align=center;verticalAlign=middle;resizable=0;points=[];fontSize=7;labelBackgroundColor=none;" vertex="1" connectable="0" parent="uCanH5rlfd1NPs6zXA0Y-225">
          <mxGeometry x="-0.2845" relative="1" as="geometry">
            <mxPoint x="-15" y="-6" as="offset" />
          </mxGeometry>
        </mxCell>
        <mxCell id="uCanH5rlfd1NPs6zXA0Y-227" style="rounded=0;orthogonalLoop=1;jettySize=auto;html=1;exitX=0.998;exitY=0.07;exitDx=0;exitDy=0;exitPerimeter=0;" edge="1" parent="1">
          <mxGeometry relative="1" as="geometry">
            <mxPoint x="490.4" y="1299.83" as="sourcePoint" />
            <mxPoint x="607.4" y="1299.83" as="targetPoint" />
          </mxGeometry>
        </mxCell>
        <mxCell id="uCanH5rlfd1NPs6zXA0Y-228" value="View All Reservation" style="edgeLabel;html=1;align=center;verticalAlign=middle;resizable=0;points=[];fontSize=7;" vertex="1" connectable="0" parent="uCanH5rlfd1NPs6zXA0Y-227">
          <mxGeometry x="-0.2845" relative="1" as="geometry">
            <mxPoint x="15" y="-6" as="offset" />
          </mxGeometry>
        </mxCell>
        <mxCell id="uCanH5rlfd1NPs6zXA0Y-229" style="rounded=0;orthogonalLoop=1;jettySize=auto;html=1;entryX=1;entryY=0.099;entryDx=0;entryDy=0;entryPerimeter=0;" edge="1" parent="1">
          <mxGeometry relative="1" as="geometry">
            <mxPoint x="607" y="1343" as="sourcePoint" />
            <mxPoint x="490.4" y="1343.18" as="targetPoint" />
          </mxGeometry>
        </mxCell>
        <mxCell id="uCanH5rlfd1NPs6zXA0Y-230" value="Reservation Notification" style="edgeLabel;html=1;align=center;verticalAlign=middle;resizable=0;points=[];fontSize=7;labelBackgroundColor=none;" vertex="1" connectable="0" parent="uCanH5rlfd1NPs6zXA0Y-229">
          <mxGeometry x="-0.2845" relative="1" as="geometry">
            <mxPoint x="-15" y="-6" as="offset" />
          </mxGeometry>
        </mxCell>
        <mxCell id="uCanH5rlfd1NPs6zXA0Y-231" style="rounded=0;orthogonalLoop=1;jettySize=auto;html=1;exitX=0.998;exitY=0.07;exitDx=0;exitDy=0;exitPerimeter=0;" edge="1" parent="1">
          <mxGeometry relative="1" as="geometry">
            <mxPoint x="490" y="1329" as="sourcePoint" />
            <mxPoint x="607" y="1329" as="targetPoint" />
          </mxGeometry>
        </mxCell>
        <mxCell id="uCanH5rlfd1NPs6zXA0Y-232" value="Notify Customer" style="edgeLabel;html=1;align=center;verticalAlign=middle;resizable=0;points=[];fontSize=7;" vertex="1" connectable="0" parent="uCanH5rlfd1NPs6zXA0Y-231">
          <mxGeometry x="-0.2845" relative="1" as="geometry">
            <mxPoint x="15" y="-6" as="offset" />
          </mxGeometry>
        </mxCell>
        <mxCell id="uCanH5rlfd1NPs6zXA0Y-233" style="rounded=0;orthogonalLoop=1;jettySize=auto;html=1;exitX=-0.001;exitY=0.13;exitDx=0;exitDy=0;exitPerimeter=0;entryX=1;entryY=0.099;entryDx=0;entryDy=0;entryPerimeter=0;" edge="1" parent="1">
          <mxGeometry relative="1" as="geometry">
            <mxPoint x="290" y="845" as="sourcePoint" />
            <mxPoint x="170.39999999999998" y="844.1800000000001" as="targetPoint" />
          </mxGeometry>
        </mxCell>
        <mxCell id="uCanH5rlfd1NPs6zXA0Y-234" value="Add Staff Number Confirmation" style="edgeLabel;html=1;align=center;verticalAlign=middle;resizable=0;points=[];fontSize=7;labelBackgroundColor=none;" vertex="1" connectable="0" parent="uCanH5rlfd1NPs6zXA0Y-233">
          <mxGeometry x="-0.2845" relative="1" as="geometry">
            <mxPoint x="-14" y="-6" as="offset" />
          </mxGeometry>
        </mxCell>
        <mxCell id="uCanH5rlfd1NPs6zXA0Y-235" style="rounded=0;orthogonalLoop=1;jettySize=auto;html=1;exitX=0.998;exitY=0.07;exitDx=0;exitDy=0;exitPerimeter=0;entryX=-0.001;entryY=0.097;entryDx=0;entryDy=0;entryPerimeter=0;" edge="1" parent="1">
          <mxGeometry relative="1" as="geometry">
            <mxPoint x="170" y="830" as="sourcePoint" />
            <mxPoint x="290" y="831" as="targetPoint" />
          </mxGeometry>
        </mxCell>
        <mxCell id="uCanH5rlfd1NPs6zXA0Y-236" value="Add Staff Number" style="edgeLabel;html=1;align=center;verticalAlign=middle;resizable=0;points=[];fontSize=7;" vertex="1" connectable="0" parent="uCanH5rlfd1NPs6zXA0Y-235">
          <mxGeometry x="-0.2845" relative="1" as="geometry">
            <mxPoint x="15" y="-6" as="offset" />
          </mxGeometry>
        </mxCell>
      </root>
    </mxGraphModel>
  </diagram>
</mxfile>
